<?xml version="1.0" encoding="utf-8"?>
<!-- Generator: Adobe Illustrator 24.0.1, SVG Export Plug-In . SVG Version: 6.00 Build 0)  -->
<svg version="1.1" id="Layer_1" xmlns="http://www.w3.org/2000/svg" xmlns:xlink="http://www.w3.org/1999/xlink" x="0px" y="0px"
	 viewBox="0 0 1080 1080" style="enable-background:new 0 0 1080 1080;" xml:space="preserve">
<style type="text/css">
	.st0{fill:#03326C;}
	.st1{fill:#666666;}
</style>
<rect class="st1" width="1080" height="1080"/>
<path class="st0" d="M161,138.3L161.1,0h-7.7l-0.1,147.4L5.5,0H0v5.4l148.8,148.3H0v7.7h138.5L0,218.7v641.6l137.9,57.3H0v7.7h149
	L0,1074.5v5.5h5.4l0,0l148.1-148.4l-0.1,148.4h7.7l0.1-139.3l57.4,139.3l0,0h641l0,0l57.6-138.3l-0.1,138.4h7.7l0.1-149.2
	l149.7,149.2l0,0h5.4v-5.4l0,0L930.1,925.2H1080v-7.7H939.8l139.2-57.6l0.9,0.4V218.6l-0.9,0.4l-138.7-57.6H1080v-7.7H932L1080,5.4
	V0h-5.5L924.6,150.2L924.7,0h-7.7L917,139.3L859.6,0h-641L161,138.3z M157.8,167.6l61,147.8L10.2,523.1L157.8,167.6z M370.2,714.4
	L312.7,853l-139,57.4L370.2,714.4z M168.1,905l57.5-138.6L364.6,709L168.1,905z M223.6,758.9l-208-208.5l355.3,147.7L223.6,758.9z
	 M18.5,543.3H313L373.9,691L18.5,543.3z M319.7,539.4l57.6-138.3l-0.2,277.6L319.7,539.4z M313,535.6H18.6L374,389L313,535.6z
	 M15.7,528.5l208.6-207.7l146.9,61.1L15.7,528.5z M363.8,370.5l-137.5-57.2L169.2,175L363.8,370.5z M174.5,168.9l137.6,57.1
	l57.1,138.4L174.5,168.9z M3.1,225.7l147.6-61.1L3.1,520.2V225.7z M3.1,853.2V558.7l147,355.5L3.1,853.2z M157.2,911.3l-147-355.5
	l208,208.5L157.2,911.3z M225.3,1076.1l-60.9-147.7l355.4,147.7H225.3z M167.4,921.4l147.3-60.9l208,208.6L167.4,921.4z
	 M320.1,855.1l61-146.9l147,355.5L320.1,855.1z M545.6,539.4l147.9-148.2l-0.2,295.4L545.6,539.4z M690.1,694.2l-299,0l149.1-149.4
	L690.1,694.2z M540.1,534L391.3,385.7h296.8L540.1,534z M534.7,539.4L384.8,689.7l0.2-299.5L534.7,539.4z M535.2,1060.7l-147-355.5
	l147,61V1060.7z M400.4,701.9l277.9,0l-139.2,57.6L400.4,701.9z M542.9,766.2l147.6-61.1l-147.6,355.6V766.2z M697.6,708.1l61,147.8
	l-84.8,84.4L550,1063.7L697.6,708.1z M708.5,364.2l57-137.3l137.7-56.9L708.5,364.2z M909.7,175.1l-57,137.4l-137.6,56.8
	L909.7,175.1z M854.7,320l208.1,208.5L707.4,380.8L854.7,320z M713.4,707.9l138.6,57.6l57.5,139.4L713.4,707.9z M904.7,911.5
	l-138.6-57.6l-57.6-139.4L904.7,911.5z M707.2,697l355.5-146.7L854.1,758L707.2,697z M704.3,689.9l61-146.7h294.5L704.3,689.9z
	 M1059.9,535.6H765.3l-60.9-147.7L1059.9,535.6z M758.5,539.4L701,677.8l0.2-277.6L758.5,539.4z M764.1,861.4l146.9,61l-355.5,146.7
	L764.1,861.4z M852.9,1076.1H558.4l355.4-146.7L852.9,1076.1z M920.5,911.3l-61-147.8l208.6-207.8L920.5,911.3z M1075.3,853.2
	l-147.6,61l147.6-355.6V853.2z M1075.3,225.7v294.4l-147-355.5L1075.3,225.7z M921.1,167.6l147,355.5l-208-208.5L921.1,167.6z
	 M852.8,3.8l60.9,147.7L558.3,3.8H852.8z M910.8,158.6l-147.3,60.9l-208-208.6L910.8,158.6z M758,224.9l-61,147L550,16.4L758,224.9z
	 M542.9,19.3l147,355.5l-147-61.1V19.3z M677.8,378.1h-278l139.3-57.6L677.8,378.1z M535.2,313.7l-147.6,61.1L535.2,19.2V313.7z
	 M380.5,371.9l-61-147.8L528.2,16.3L380.5,371.9z M314.1,218.6l-146.9-61L522.7,10.9L314.1,218.6z M164.3,150.5l61-146.7h294.4
	L164.3,150.5z"/>
</svg>
