<?xml version="1.0" standalone="no"?>
<!DOCTYPE svg PUBLIC "-//W3C//DTD SVG 1.1//EN" "http://www.w3.org/Graphics/SVG/1.1/DTD/svg11.dtd" >
<svg xmlns="http://www.w3.org/2000/svg">
<metadata>Generated by IcoMoon</metadata>
<defs>
<font id="icomoon" horiz-adv-x="1024">
<font-face units-per-em="1024" ascent="960" descent="-64" />
<missing-glyph horiz-adv-x="1024" />
<glyph unicode="&#x20;" horiz-adv-x="512" d="" />
<glyph unicode="&#xe900;" glyph-name="global" d="M512 948.364c276.342 0 500.364-224.021 500.364-500.364 0-276.341-224.023-500.364-500.364-500.364-276.343 0-500.364 224.022-500.364 500.364s224.020 500.364 500.364 500.364zM663.348 213.87l-23.044-2.416c-93.028-8.827-186.754-8.031-279.656 2.385 10.839-58.598 25.781-116.651 44.827-173.693 1.097-3.284 1.679-6.584 1.8-9.826 33.512-8.417 68.599-12.867 104.725-12.867s71.213 4.45 104.743 12.83c0.116 3.315 0.696 6.612 1.782 9.862 19.047 57.042 33.988 115.095 44.824 173.723zM896.047 260.887l-3.545-1.109c-51.597-15.065-103.874-27-156.548-35.807-9.197-55.372-21.924-110.335-38.111-164.53 85.935 41.244 156.133 110.158 198.955 195.218-0.227 0.787-0.367 1.6-0.478 2.421l-0.272 3.806zM127.953 260.887l-0.272-3.806-0.502-2.375c41.558-82.574 108.912-149.935 191.48-191.503l2.421 0.479 3.76 0.272-1.063 3.545c-15.060 51.582-26.993 103.843-35.799 156.501-43.902 7.325-87.534 16.842-130.727 28.534l-29.299 8.353zM349.52 610.51c-13.752-107.891-13.752-217.129-0.030-325.036 107.891-13.704 217.129-13.704 325.036 0.017 13.704 107.89 13.704 217.128-0.017 325.035-107.874 13.698-217.097 13.7-324.988-0.016zM277.839 599.352l-2.757-0.527c-57.68-10.792-114.797-25.561-170.935-44.305-3.25-1.085-6.547-1.666-9.806-1.784-8.437-33.522-12.887-68.609-12.887-104.736s4.449-71.213 12.83-104.743c3.278-0.102 6.578-0.685 9.862-1.781 57.042-19.047 115.095-33.988 173.723-44.824-11.309 100.589-11.308 202.128-0.031 302.701zM746.13 599.344l2.445-23.343c8.796-92.923 7.991-186.54-2.412-279.336 58.596 10.824 116.649 25.765 173.691 44.812 3.284 1.097 6.584 1.679 9.826 1.8 8.417 33.511 12.867 68.598 12.867 104.724s-4.449 71.213-12.83 104.743c-3.315 0.111-6.612 0.691-9.862 1.776-57.042 19.047-115.095 33.988-173.723 44.824zM318.705 832.821c-85.082-42.82-154.014-113.027-195.219-199.046 54.151 16.25 109.114 28.976 164.516 38.241 7.315 43.876 16.835 87.524 28.531 130.732l8.307 29.299-3.76 0.272zM697.774 836.514l2.447-8.013c15.065-51.598 27.001-103.875 35.807-156.55 55.372-9.2 110.335-21.926 164.53-38.114-42.458 88.476-114.246 160.264-202.784 202.677zM512 878.545c-36.126 0-71.214-4.449-104.744-12.83-0.103-3.278-0.685-6.578-1.782-9.862-19.047-57.042-33.988-115.095-44.824-173.723 100.582 11.303 202.116 11.303 302.685 0.028-10.824 58.601-25.765 116.654-44.812 173.696-1.085 3.25-1.666 6.547-1.784 9.806-33.527 8.437-68.614 12.887-104.741 12.887z" />
<glyph unicode="&#xe901;" glyph-name="user" horiz-adv-x="931" d="M378.647 924.138c55.927 32.288 125.023 32.288 181.392 0.077v0l276.846-159.863c55.973-32.891 90.299-92.371 90.299-157.168v0-318.37c0-64.485-34.46-124.354-90.529-157.3v0l-276.483-159.653c-55.927-32.288-125.023-32.288-181.529 0.002v0l-276.476 159.649c-56.014 32.338-90.532 92.307-90.532 157.302v0 318.37c0 64.485 34.461 124.356 90.529 157.302v0zM465.455 304.936c-123.474 0-221.091-79.49-221.091-173.706l-0.093-1.136 169.15-97.69c32.37-18.497 71.426-19.818 104.357-4.027l7.485 3.948 161.714 93.404c-0.284 1.792-0.431 3.629-0.431 5.501 0 94.216-97.617 173.706-221.091 173.706zM525.399 863.596c-34.86 19.92-77.474 19.92-111.842 0.079v0l-276.249-159.517c-34.556-20.306-55.853-57.308-55.853-96.974v0-318.37c0-40.086 21.241-76.988 55.624-96.838v0l40.793-23.572c21.378 118.125 143.141 206.35 287.583 206.35 146.134 0 269.054-90.304 288.293-210.513l47.765 27.602c34.556 20.306 55.853 57.306 55.853 96.972v0 318.37c0 39.948-21.137 76.574-55.624 96.84v0zM465.457 762.182c101.575 0 183.92-82.344 183.92-183.92s-82.344-183.92-183.92-183.92c-101.576 0-183.92 82.344-183.92 183.92s82.344 183.92 183.92 183.92zM465.457 692.364c-63.016 0-114.101-51.085-114.101-114.101s51.085-114.101 114.101-114.101c63.016 0 114.101 51.085 114.101 114.101s-51.085 114.101-114.101 114.101z" />
<glyph unicode="&#xe902;" glyph-name="verify4" d="M449.91 303.168c-9.437 0-18.403 3.775-25.009 10.381l-114.19 114.192c-13.684 13.684-13.684 36.334 0 50.018s36.334 13.684 50.018 0l89.181-89.183 202.904 202.904c13.684 13.684 36.334 13.684 50.018 0s13.684-36.333 0-50.019l-227.913-227.913c-6.606-6.606-15.572-10.381-25.009-10.381zM507.025-54.519c-29.728 0-59.456 9.909-82.577 29.728l-74.557 64.174c-7.55 6.606-26.425 13.212-36.334 13.212h-81.161c-69.837 0-126.461 56.624-126.461 126.461v80.69c0 9.909-6.606 28.312-13.212 35.862l-63.702 75.027c-38.693 45.771-38.693 117.967 0 163.739l63.702 75.027c6.606 7.55 13.212 25.953 13.212 35.862v81.161c0 69.837 56.624 126.461 126.461 126.461h81.633c9.909 0 28.784 7.078 36.334 13.212l74.557 64.174c46.243 39.637 118.439 39.637 164.682 0l74.555-64.174c7.55-6.606 26.425-13.212 36.334-13.212h80.218c69.837 0 126.461-56.624 126.461-126.461v-80.218c0-9.909 7.078-28.784 13.684-36.334l64.174-74.555c39.637-46.243 39.637-118.439 0-164.682l-64.174-74.555c-6.606-7.55-13.684-26.425-13.684-36.334v-80.218c0-69.837-56.624-126.461-126.461-126.461h-80.218c-9.909 0-28.784-7.078-36.334-13.212l-74.555-64.174c-23.122-20.29-52.849-30.2-82.577-30.2zM232.396 782.105c-30.671 0-55.681-25.009-55.681-55.681v-80.69c0-26.897-12.74-61.343-30.2-81.633l-63.702-75.027c-16.515-19.347-16.515-52.849 0-72.196l63.702-75.027c17.459-20.762 30.2-54.737 30.2-81.633v-80.69c0-30.671 25.009-55.681 55.681-55.681h81.633c27.368 0 61.815-12.74 82.577-30.671l74.557-64.174c19.347-16.515 53.321-16.515 72.668 0l74.555 64.174c20.762 17.459 55.209 30.671 82.577 30.671h80.218c30.671 0 55.681 25.009 55.681 55.681v80.218c0 27.368 12.74 61.815 30.671 82.577l64.174 74.555c16.515 19.347 16.515 53.321 0 72.668l-64.174 74.555c-17.931 20.762-30.671 55.209-30.671 82.577v79.746c0 30.671-25.009 55.681-55.681 55.681h-80.218c-27.368 0-61.815 12.74-82.577 30.671l-74.555 64.174c-19.347 16.515-53.321 16.515-72.668 0l-74.557-64.646c-20.762-17.459-55.681-30.2-82.577-30.2h-81.633z" />
<glyph unicode="&#xe903;" glyph-name="truck-fast3" d="M648.454 960c19.336 0 35.371-16.035 35.371-35.371l-0.013-106.102 51.428-0.010c46.689 0 89.606-24.996 112.715-65.554l80.623-140.969c0.008-0.014 0.015-0.028 0.023-0.042l80.645-141.483c2.83-5.188 4.716-11.319 4.716-17.45l-0.003-93.836c0.002-0.162 0.003-0.324 0.003-0.486v-141.483c0-97.623-79.23-176.854-176.854-176.854l-16.662 0.002c-15.377-54.466-65.4-94.324-124.821-94.324s-109.444 39.858-124.821 94.324h-127.645c-15.377-54.466-65.4-94.324-124.821-94.324s-109.444 39.858-124.821 94.324l-16.662-0.002c-97.623 0-176.854 79.23-176.854 176.854 0 19.336 16.035 35.371 35.371 35.371s35.371-16.035 35.371-35.371c0-58.48 47.633-106.112 106.112-106.112h16.505c3.352 11.68 8.3 22.703 14.595 32.811 17.693 28.594 46.191 49.788 79.819 57.896 0.141 0.016 0.281 0.050 0.422 0.083 1.472 0.367 2.956 0.692 4.449 0.992 0.134 0.014 0.261 0.039 0.388 0.065 1.536 0.316 3.089 0.593 4.651 0.843 0.086 0.005 0.159 0.017 0.233 0.029 1.532 0.25 3.085 0.467 4.647 0.656 0.154 0.014 0.308 0.032 0.462 0.050 1.22 0.148 2.444 0.274 3.673 0.383 0.627 0.053 1.251 0.104 1.876 0.151 0.98 0.075 1.972 0.137 2.967 0.188 0.621 0.031 1.239 0.059 1.858 0.082 1.638 0.062 3.285 0.093 4.938 0.093s3.299-0.031 4.937-0.092l-4.937 0.092c2.251 0 4.488-0.058 6.711-0.171 1.035-0.052 2.071-0.117 3.104-0.194 0.605-0.047 1.201-0.096 1.796-0.149 1.215-0.105 2.427-0.229 3.634-0.37 0.197-0.028 0.404-0.053 0.612-0.078 4.896-0.591 9.699-1.457 14.401-2.579 0.091-0.039 0.177-0.060 0.264-0.081 33.818-8.123 62.453-29.5 80.13-58.338 6.17-9.982 11.023-20.854 14.325-32.362l127.489-0.004c15.376 54.467 65.4 94.326 124.822 94.326h0.472l3.979-0.072 0.225-0.010-4.204 0.083c59.423 0 109.413-40.087 124.977-94.322h16.035c58.48 0 106.112 47.633 106.112 106.112v106.112h-106.112c-45.275 0-82.532 37.257-82.532 82.532v141.483c0 45.275 36.786 82.532 82.532 82.532l-50.462 88.191c-10.375 18.393-30.183 29.711-51.405 29.711h-51.405v-294.756c0-67.010-50.688-122.068-115.854-128.965l-4.579-0.403c-1.531-0.108-3.069-0.189-4.614-0.244l-4.646-0.082h-47.17c-19.336 0-35.371 16.035-35.371 35.371s16.035 35.371 35.371 35.371h47.161c32.541 0 58.951 26.41 58.951 58.951v436.239h-389.079c-55.65 0-106.585-30.182-133.939-78.758-9.432-16.978-31.124-23.111-48.102-13.679s-23.111 31.127-13.679 48.105c39.615 70.741 114.603 115.073 195.719 115.073h424.45zM318.337 134.683c-32.541 0-58.951-26.41-58.951-58.951s26.41-58.951 58.951-58.951c32.541 0 58.951 26.41 58.951 58.951 0 31.379-24.557 57.057-55.489 58.851l-3.462 0.1zM695.624 134.683c-32.541 0-58.951-26.41-58.951-58.951s26.41-58.951 58.951-58.951c32.541 0 58.951 26.41 58.951 58.951 0 31.379-24.557 57.057-55.489 58.851l-3.462 0.1zM129.693 394.068c19.336 0 35.371-16.035 35.371-35.371s-16.035-35.371-35.371-35.371h-94.322c-19.336 0-35.371 16.035-35.371 35.371s16.035 35.371 35.371 35.371h94.322zM877.194 559.132h-40.087c-6.603 0-11.79-5.188-11.79-11.79v-141.483c0-6.603 5.188-11.79 11.79-11.79h106.112v49.519l-66.025 115.544zM224.015 535.551c19.336 0 35.371-16.035 35.371-35.371s-16.035-35.371-35.371-35.371h-188.644c-19.336 0-35.371 16.035-35.371 35.371s16.035 35.371 35.371 35.371h188.644zM318.337 677.034c19.336 0 35.371-16.035 35.371-35.371s-16.035-35.371-35.371-35.371h-282.966c-19.336 0-35.371 16.035-35.371 35.371s16.035 35.371 35.371 35.371h282.966z" />
<glyph unicode="&#xe904;" glyph-name="timer-1" horiz-adv-x="890" d="M434.087 815.304c233.482 0 422.957-189.475 422.957-422.957s-189.475-422.957-422.957-422.957c-233.482 0-422.957 189.475-422.957 422.957s189.475 422.957 422.957 422.957zM434.087 748.522c-196.598 0-356.174-159.575-356.174-356.174s159.575-356.174 356.174-356.174c196.598 0 356.174 159.575 356.174 356.174s-159.575 356.174-356.174 356.174zM434.087 659.478c16.905 0 30.875-12.562 33.086-28.86l0.305-4.531v-222.609c0-18.442-14.95-33.391-33.391-33.391-16.905 0-30.875 12.562-33.086 28.86l-0.305 4.531v222.609c0 18.442 14.95 33.391 33.391 33.391zM567.652 926.609c18.442 0 33.391-14.95 33.391-33.391 0-16.905-12.562-30.875-28.86-33.086l-4.531-0.305h-267.13c-18.442 0-33.391 14.95-33.391 33.391 0 16.905 12.562 30.875 28.86 33.086l4.531 0.305h267.13z" />
<glyph unicode="&#xe905;" glyph-name="shopping-bag2" horiz-adv-x="883" d="M503.877 960c89.331 0 152.003-62.672 152.003-152.003l0.014-61.554c134.082-16.886 156.168-100.594 167.442-192.876l42.093-350.777c9.354-79.977-4.677-142.182-42.093-184.275-38.819-42.561-98.685-64.075-179.598-64.075h-420.464c-80.445 0-140.778 21.514-178.194 64.075s-51.915 104.298-42.094 184.275l42.094 350.777c10.834 92.088 32.805 175.637 166.459 192.768l0.023 61.662c0 89.331 62.672 152.003 152.003 152.003h140.311zM585.708 679.384h-304.008l0.017-35.083c0-19.176-15.902-35.078-35.078-35.078s-35.078 15.902-35.078 35.078l-0.024 31.342c-82.975-13.421-88.938-62.035-97.239-130.027l-42.093-350.777c-7.016-59.398 1.403-102.895 25.255-129.554s65.946-40.222 125.812-40.222h420.464c59.866 0 101.959 13.563 125.812 40.222 22.773 25.452 31.477 66.251 26.114 121.582l-549.025 0.007c-19.176 0-35.078 15.902-35.078 35.078s15.902 35.078 35.078 35.078l540.696 0.005-34.622 288.581c-8.293 68.315-13.918 116.626-96.821 130.013l-0.012-31.328c0-19.176-15.902-35.078-35.078-35.078s-35.078 15.902-35.078 35.078l-0.017 35.083zM503.877 889.845h-140.311c-50.512 0-81.848-31.336-81.848-81.848l-0.017-58.459h304.008l0.017 58.459c0 50.512-31.336 81.848-81.848 81.848z" />
<glyph unicode="&#xe906;" glyph-name="search-normal-13-copy" d="M897.415 111.946l93.091-93.091c13.498-13.498 13.498-35.84 0-49.338-6.982-6.982-15.825-10.24-24.669-10.24s-17.687 3.258-24.669 10.24l-93.091 93.091c-13.498 13.498-13.498 35.84 0 49.338s35.84 13.498 49.338 0zM477.091 960c262.982 0 477.091-214.109 477.091-477.091s-214.109-477.091-477.091-477.091c-262.982 0-477.091 214.109-477.091 477.091s214.109 477.091 477.091 477.091zM477.091 890.182c-224.815 0-407.273-182.924-407.273-407.273s182.458-407.273 407.273-407.273c224.815 0 407.273 182.924 407.273 407.273s-182.458 407.273-407.273 407.273z" />
<glyph unicode="&#xe907;" glyph-name="Path-Copy1" horiz-adv-x="1152" d="M1097.735 947.157c22.775 8.857 46.031-9.939 43.438-33.181l-0.795-4.404-237.037-948.148c-5.656-22.623-32.421-31.352-50.237-17.863l-3.435 2.997-270.213 270.232-155.634-207.545c-14.52-19.36-43.822-15.962-54.154 4.716l-1.803 4.364-114.339 343.019-225.17 112.553c-23.366 11.683-23.262 44.235-1.601 56.412l4.314 2.034 1066.667 414.815zM1063.253 865.109l-941.739-366.251 172.5-86.237c6.073-3.036 10.982-7.903 14.076-13.851l1.971-4.652 99.197-297.607 124.459 165.973-39.604 39.628c-11.361 11.361-12.393 29.138-3.098 41.666l3.098 3.589 237.037 237.037c12.497 12.497 32.758 12.497 45.255 0 11.361-11.361 12.393-29.138 3.098-41.666l-3.098-3.589-214.443-214.372 292.949-292.949 208.341 833.28z" />
<glyph unicode="&#xe908;" glyph-name="Path-Copy-2" horiz-adv-x="649" d="M456.145 951.467l-8.686-0.128c-155.79-4.593-280.671-132.328-280.671-289.23l-0.012-79.897-132.642-0.006c-14.138 0-25.6-11.462-25.6-25.6v-211.006l0.234-3.474c1.695-12.495 12.406-22.126 25.366-22.126h132.642l0.012-343.661c0-14.138 11.462-25.6 25.6-25.6h211.006l3.474 0.234c12.495 1.695 22.126 12.406 22.126 25.366l-0.006 343.661h132.661c11.747 0 21.987 7.995 24.836 19.391l52.752 211.006 0.595 3.22c1.796 14.954-9.886 28.589-25.43 28.589l-185.412 0.006 0.006 79.897c0 14.995 12.156 27.152 27.152 27.152h158.255c14.138 0 25.6 11.462 25.6 25.6v211.006c0 14.138-11.462 25.6-25.6 25.6h-158.255zM588.8 900.267v-159.778l-132.655-0.028c-43.272 0-78.352-35.079-78.352-78.352v-105.503l0.234-3.474c1.695-12.495 12.406-22.126 25.366-22.126l178.204 0.006-39.97-159.812h-138.234l-3.474-0.234c-12.495-1.695-22.126-12.406-22.126-25.366l-0.006-343.654h-159.812l0.012 343.654-0.234 3.474c-1.695 12.495-12.406 22.126-25.366 22.126h-132.655v159.812l132.655-0.006c14.138 0 25.6 11.462 25.6 25.6v105.503c0 131.531 106.627 238.158 238.158 238.158h132.655z" />
<glyph unicode="&#xe909;" glyph-name="logo-footer-1" horiz-adv-x="5200" d="M2536.313 787.883c-13.705-0.023-26.859 5.418-36.567 15.128s-15.175 22.893-15.198 36.649v68.563c0.049 28.576 23.117 51.728 51.588 51.777h88.487c28.402-0.146 51.363-23.271 51.411-51.777v-68.563c-0.048-28.506-23.009-51.631-51.411-51.777h-88.31zM2770.893 787.883h88.93c28.402 0.146 51.363 23.271 51.411 51.777v68.563c-0.048 28.506-23.009 51.631-51.411 51.777h-88.93c-28.506 0-51.628-23.167-51.677-51.777v-68.563c0.049-28.61 23.171-51.777 51.677-51.777zM4421.094 108.295h-88.93c-28.437-0.049-51.491-23.148-51.588-51.688v-68.652c-0.023-13.756 5.399-26.957 15.073-36.701s22.809-15.23 36.515-15.254h88.93c28.422 0.098 51.411 23.251 51.411 51.777v68.652c0.049 28.561-22.954 51.768-51.411 51.866zM4655.674 108.295h-88.93c-28.471 0-51.579-23.113-51.677-51.688v-68.652c0.049-28.61 23.171-51.777 51.677-51.777h88.93c28.402 0.146 51.363 23.271 51.411 51.777v68.652c-0.097 28.472-23.044 51.542-51.411 51.688v0zM5078.555 960h-98.663v-767.423h220.422v645.129c-0.194 67.426-54.58 122.050-121.759 122.294zM690.732 960h-98.486v-794.333c-0.146-45.001-36.483-81.432-81.32-81.529h-209.096c-44.802 0.146-81.086 36.563-81.231 81.529v551.166h-220.599v-545.482c0.388-129.784 105.093-234.912 234.403-235.351h343.95c129.207 0.487 233.829 105.493 234.315 235.174v666.088c0.049 67.668-54.515 122.591-121.936 122.738v0zM1793.108 192.577h-121.405l-89.726 88.19v-109.416c-0.437-129.799-105.167-234.913-234.492-235.351h-270.594l-156.18 147.96h359.259c44.837 0.097 81.174 36.528 81.32 81.529v26.644h-318.554c-67.317 0.098-121.878 54.819-122.024 122.383v180.998c0 122.45 98.773 221.785 220.776 222.029h318.555c67.484-0.245 122.034-55.273 121.936-123.004v-254.091h361.825l-150.694-147.872zM1361.29 489.475c-0.146 45.001-36.483 81.432-81.32 81.529h-60.791c-44.863 0-77.515-36.59-77.515-81.529v-67.497c0.097-44.918 36.301-81.334 81.054-81.529h139.014l-0.442 149.026zM1974.507 192.577l150.429 147.872h-108.132l-150.429-147.872h108.132zM4749.825 717.544h-98.221v-295.743c-0.146-45.001-36.483-81.432-81.32-81.529h-290.946v255.156c-0.34 67.371-54.722 121.873-121.847 122.116h-98.486v-295.743c-0.194-45.016-36.557-81.432-81.408-81.529h-52.031v255.156c-0.34 67.405-54.776 121.922-121.936 122.116h-98.575v-295.743c-0.146-45.001-36.483-81.432-81.32-81.529h-52.208v255.156c-0.291 67.356-54.648 121.873-121.759 122.116h-98.663v-295.743c-0.146-45.001-36.483-81.432-81.32-81.529h-137.863v255.156c-0.34 67.405-54.776 121.922-121.936 122.116h-98.575v-295.743c-0.146-45.001-36.483-81.432-81.32-81.529h-290.858v157.907c-0.437 121.039-98.144 219.024-218.741 219.365h-171.754l278.47 242.456h-290.681l-448.985-388.996h550.037c44.768-0.195 80.997-36.597 81.143-81.529v-67.497c-0.194-45.016-36.557-81.432-81.408-81.529h-39.111l-150.429-147.872h369.789c56.615 0.231 105.669 39.435 118.573 94.762l96.54-94.762h377.487c54.669 0.309 102.513 36.949 117.246 89.789l91.053-89.522h939.028c55.542 0.149 103.998 37.874 117.954 91.831l93.885-92.098h280.328c122.81 0.488 222.206 100.367 222.546 223.628v179.222c-0.293 67.598-55.026 122.215-122.378 122.116v0z" />
<glyph unicode="&#xe90a;" glyph-name="zoom" horiz-adv-x="1101" d="M973.287 112.996l92.6-92.534c13.427-13.417 13.427-35.626 0-49.043-6.945-6.94-15.742-10.179-24.539-10.179s-17.594 3.239-24.539 10.179l-92.6 92.534c-13.427 13.417-13.427 35.626 0 49.043s35.651 13.417 49.078 0zM496.106 959.126c260.161 0 471.973-211.812 471.973-471.973s-211.812-471.973-471.973-471.973c-260.161 0-471.973 211.812-471.973 471.973s211.812 471.973 471.973 471.973zM496.106 890.056c-222.403 0-402.904-180.961-402.904-402.904s180.501-402.904 402.904-402.904c222.403 0 402.904 180.961 402.904 402.904s-180.501 402.904-402.904 402.904zM509.591 635.487c14.744 0 26.97-15.518 26.97-34.231l-0.018-100.601 100.637-0.018c18.713 0 34.231-12.226 34.231-26.97s-15.518-26.97-34.231-26.97l-100.637 0.018 0.018-73.667c0-18.713-12.226-34.231-26.97-34.231s-26.97 15.518-26.97 34.231l-0.018 73.667-73.631-0.018c-18.713 0-34.231 12.226-34.231 26.97s15.518 26.97 34.231 26.97l73.631 0.018 0.018 100.601c0 18.713 12.226 34.231 26.97 34.231z" />
<glyph unicode="&#xe90b;" d="M512-44.373l-287.932 696.813 287.932 287.932 288.215-288.215z" />
<glyph unicode="&#xe90c;" d="M512-44.373l-287.932 696.813 287.932 287.932z" />
<glyph unicode="&#xe90d;" glyph-name="Group-50-Copy" d="M816.952 833.748c187.729-160.122 226.992-434.911 91.616-641.198-133.157-202.906-394.351-277.182-613.762-176.31l-2.71 1.315-252.259-44.951-3.538-0.196-2.265 0.116-1.308 0.153-3.565 0.753-2.063 0.667-3.217 1.428-3 1.82-2.745 2.186-1.423 1.381-1.028 1.145-1.244 1.574-0.877 1.265-1.751 3.126-1.344 3.386-0.489 1.707-0.411 1.913-0.407 3.708-0.025 1.377 0.27 3.573 0.753 3.565 1.253 3.514 78.736 181.344-5.117 7.86c-123.809 196.034-93.021 453.313 75.157 614.561l9.141 8.546c182.352 166.22 459.893 170.794 647.623 10.672zM206.285 782.535c-161.922-147.598-188.728-392.618-62.549-571.735 4.722-6.703 6.158-15.1 4.073-22.888l-1.337-3.833-64.406-148.239 209.053 37.227c4.3 0.766 8.699 0.491 12.837-0.775l4.037-1.594c196.778-96.346 434.502-31.228 554.711 151.949s85.346 427.18-81.352 569.364c-166.698 142.183-413.146 138.122-575.068-9.476zM370.402 669.252c27.605 0 50.291-21.062 52.865-47.993l0.243-5.115v-51.359c0-25.88-18.512-47.436-43.016-52.15l-2.309-0.306 1.124-4.621c20.697-80.812 84.316-144.432 165.129-165.129l4.572-1.075 0.355 2.259c4.4 22.871 23.471 40.521 47.036 42.773l5.115 0.243h51.359c29.331 0 53.108-23.777 53.108-53.108 0-27.605-21.062-50.291-47.993-52.865l-5.115-0.243h-51.359c-153.952 0-279.316 122.403-284.081 275.199l-0.14 9.022v51.359c0 29.331 23.777 53.108 53.108 53.108z" />
<glyph unicode="&#xe90e;" glyph-name="Group-49-Copy" d="M882.858 950.519c57.601 0 104.296-46.695 104.296-104.296v0-769.080c0-57.601-46.695-104.296-104.296-104.296v0h-769.080c-57.601 0-104.296 46.695-104.296 104.296v0 769.080c0 57.601 46.695 104.296 104.296 104.296v0zM882.858 893.63h-769.080c-26.182 0-47.407-21.225-47.407-47.407v0-769.080c0-26.182 21.225-47.407 47.407-47.407v0h769.080c26.182 0 47.407 21.225 47.407 47.407v0 769.080c0 26.182-21.225 47.407-47.407 47.407v0zM268.122 547.676c14.4 0 26.301-10.701 28.185-24.585l0.26-3.86v-287.745c0-15.709-12.735-28.444-28.444-28.444-14.4 0-26.301 10.701-28.185 24.585l-0.26 3.86v287.745c0 15.709 12.735 28.444 28.444 28.444zM613.416 547.676c76.799 0 139.511-60.312 143.356-136.156l0.187-7.387v-172.647c0-15.709-12.735-28.444-28.444-28.444-14.4 0-26.301 10.701-28.185 24.585l-0.26 3.86v172.647c0 47.857-38.796 86.654-86.654 86.654s-86.654-38.796-86.654-86.654v-172.647c0-15.709-12.735-28.444-28.444-28.444-14.4 0-26.301 10.701-28.185 24.585l-0.26 3.86v287.745c0 15.709 12.735 28.444 28.444 28.444 14.4 0 26.301-10.701 28.185-24.585l0.26-3.86-0.001-0.653c24.081 18.262 54.102 29.097 86.655 29.097zM268.122 720.323c14.4 0 26.301-10.701 28.185-24.585l0.26-4.435c0-15.709-12.735-28.444-28.444-28.444-14.4 0-26.301 10.701-28.185 24.585l-0.26 4.435c0 15.709 12.735 28.444 28.444 28.444z" />
<glyph unicode="&#xe90f;" glyph-name="Group-48-Copy" d="M827.512 950.857c95.94 0 173.714-77.775 173.714-173.714v0-644.655c0-95.94-77.775-173.714-173.714-173.714v0h-644.655c-95.94 0-173.714 77.775-173.714 173.714v0 644.655c0 95.94 77.775 173.714 173.714 173.714v0zM827.512 896h-644.655c-65.643 0-118.857-53.214-118.857-118.857v0-644.655c0-65.643 53.214-118.857 118.857-118.857v0h644.655c65.643 0 118.857 53.214 118.857 118.857v0 644.655c0 65.643-53.214 118.857-118.857 118.857v0zM505.185 657.974c112.201 0 203.159-90.957 203.159-203.159s-90.957-203.159-203.159-203.159c-112.201 0-203.159 90.957-203.159 203.159s90.957 203.159 203.159 203.159zM505.185 603.117c-81.905 0-148.301-66.397-148.301-148.301s66.397-148.301 148.301-148.301c81.905 0 148.301 66.397 148.301 148.301s-66.397 148.301-148.301 148.301zM768.78 745.839c13.886 0 25.362-10.319 27.178-23.707l0.25-3.722c0-15.207-12.28-27.487-27.429-27.487-13.886 0-25.362 10.319-27.178 23.707l-0.25 3.722c0 15.207 12.28 27.487 27.429 27.487z" />
<glyph unicode="&#xe910;" d="M224.068 652.44l287.932 287.932 288.215-288.215-288.215-696.53z" />
<glyph unicode="&#xe911;" glyph-name="Group-9-Copy" d="M1013.961 217.215c0-97.623-79.23-176.854-176.854-176.854l-16.662 0.002c-15.377-54.466-65.4-94.324-124.821-94.324s-109.444 39.858-124.821 94.324h-127.645c-15.377-54.466-65.4-94.324-124.821-94.324s-109.444 39.858-124.821 94.324l-16.662-0.002c-97.623 0-176.854 79.23-176.854 176.854v518.771c0 123.562 100.453 224.015 224.015 224.015h424.449c19.336 0 35.371-16.035 35.371-35.371l-0.003-106.102 51.408-0.010c46.689 0 89.606-24.996 112.715-65.554l80.623-140.969c0.008-0.014 0.015-0.028 0.023-0.042l80.645-141.483c2.83-5.188 4.716-11.319 4.716-17.45v-235.805zM318.337 134.683c-32.541 0-58.951-26.41-58.951-58.951s26.41-58.951 58.951-58.951c32.541 0 58.951 26.41 58.951 58.951 0 31.379-24.557 57.057-55.489 58.851l-3.462 0.1zM695.624 134.683c-32.541 0-58.951-26.41-58.951-58.951s26.41-58.951 58.951-58.951c32.541 0 58.951 26.41 58.951 58.951 0 31.379-24.557 57.057-55.489 58.851l-3.462 0.1zM735.239 747.776h-51.405v-294.756c0-70.126-55.513-127.164-125.037-129.611l-4.655-0.082h-483.4v-106.112c0-58.48 47.633-106.112 106.112-106.112h16.507c3.352 11.68 8.3 22.703 14.595 32.811 17.691 28.594 46.19 49.788 79.818 57.896 0.141 0.016 0.281 0.050 0.422 0.083 1.472 0.367 2.955 0.692 4.449 0.992 0.134 0.014 0.261 0.039 0.388 0.065 1.536 0.316 3.089 0.593 4.651 0.843 0.086 0.005 0.159 0.017 0.233 0.029 1.532 0.25 3.085 0.467 4.647 0.656 0.154 0.014 0.308 0.032 0.462 0.050 1.22 0.148 2.444 0.274 3.673 0.383 0.627 0.053 1.251 0.104 1.876 0.151 0.98 0.075 1.972 0.137 2.967 0.188 0.621 0.031 1.239 0.059 1.858 0.082 1.638 0.062 3.285 0.093 4.938 0.093s3.299-0.031 4.937-0.092l-4.937 0.092c2.251 0 4.488-0.058 6.711-0.171 1.035-0.052 2.071-0.117 3.104-0.194 0.605-0.047 1.201-0.096 1.796-0.149 1.215-0.105 2.427-0.229 3.634-0.37 0.197-0.028 0.404-0.053 0.612-0.078 4.896-0.591 9.699-1.457 14.401-2.579 0.091-0.039 0.177-0.060 0.264-0.081 33.818-8.123 62.453-29.5 80.13-58.338 6.17-9.982 11.023-20.854 14.325-32.362l127.489-0.004c15.376 54.467 65.4 94.326 124.822 94.326h0.472l3.979-0.072 0.225-0.010-4.204 0.083c59.423 0 108.942-40.087 124.505-94.322h16.506c58.48 0 106.112 47.633 106.112 106.112v106.112h-106.112c-45.275 0-82.532 37.257-82.532 82.532v141.483c0 45.275 36.786 82.532 82.532 82.532l-50.462 88.191c-10.375 18.393-30.183 29.711-51.405 29.711zM613.093 889.259h-389.078c-84.418 0-153.273-68.855-153.273-153.273v-341.917h483.4c32.541 0 58.951 26.41 58.951 58.951v436.239zM877.194 559.132h-40.087c-6.603 0-11.79-5.188-11.79-11.79v-141.483c0-6.603 5.188-11.79 11.79-11.79h106.112v49.519l-66.025 115.544z" />
<glyph unicode="&#xe912;" glyph-name="call4" d="M246.203-46.345c52.892 0 108.592 12.638 166.164 36.977 56.168 23.871 112.804 56.636 168.036 96.422 54.764 40.254 107.655 85.188 157.739 134.335 49.615 50.083 94.55 102.975 134.335 157.271 40.254 56.168 72.55 112.336 95.486 166.632 24.34 58.040 36.509 114.208 36.509 167.1 0 36.509-6.553 71.146-19.191 103.443-13.106 33.233-34.169 64.125-62.721 90.805-36.041 35.573-77.231 53.36-121.229 53.36-18.255 0-36.977-4.213-52.892-11.702-18.255-8.425-33.701-21.063-44.934-37.913l-108.592-153.058c-9.829-13.574-17.318-26.68-22.467-39.786-6.085-14.042-9.361-28.084-9.361-41.658 0-17.787 5.149-35.105 14.978-51.487 7.021-12.638 17.787-26.212 31.361-39.786l31.829-33.233c-0.468-1.404-0.936-2.34-1.404-3.276-5.617-9.829-16.85-26.68-38.382-51.955-22.935-26.212-44.466-50.083-65.997-72.082-27.616-27.148-50.551-48.679-72.082-66.466-26.68-22.467-43.998-33.701-54.296-38.85l0.936-2.34-34.169 33.701c-14.51 14.51-28.552 25.276-42.126 32.297-25.744 15.914-58.508 18.723-91.273 5.149-12.17-5.149-25.276-12.17-39.318-21.999l-155.398-110.464c-17.318-11.702-29.956-26.68-37.445-44.466-7.021-17.787-10.297-34.169-10.297-50.551 0-22.467 5.149-44.934 14.978-65.997s21.999-39.318 37.445-56.168c26.68-29.488 55.7-50.551 89.401-64.125 32.297-13.106 67.402-20.127 104.379-20.127zM801.331 889.79c25.744 0 49.615-11.234 72.55-33.701 21.531-20.127 36.509-42.126 45.871-65.997 9.829-24.34 14.51-50.083 14.51-77.699 0-43.53-10.297-90.805-30.892-139.484-21.063-49.615-50.551-101.103-87.997-152.59s-80.040-101.571-126.846-148.845c-46.807-46.339-97.358-89.401-149.313-127.314-50.551-36.977-102.507-66.934-153.994-88.465-80.040-34.169-154.93-42.126-216.715-16.382-23.871 9.829-44.934 24.808-64.125 46.339-10.766 11.702-19.191 24.34-26.212 39.318-5.617 11.702-8.425 23.871-8.425 36.041 0 7.489 1.404 14.978 5.149 23.403 1.404 2.808 4.213 7.957 13.106 14.042l155.398 110.464c9.361 6.553 17.787 11.234 25.744 14.51 10.297 4.213 14.51 8.425 30.424-1.404 9.361-4.681 17.787-11.702 27.148-21.063l35.573-35.105c18.255-17.787 46.339-21.999 67.87-14.042l12.638 5.617c19.191 10.297 41.658 26.212 66.466 47.275 22.467 19.191 46.807 41.658 76.295 70.678 22.935 23.403 45.871 48.211 69.742 75.827 21.999 25.744 37.913 47.743 47.743 65.997l5.617 14.042c2.808 10.766 3.745 16.85 3.745 23.403 0 16.85-6.085 31.829-17.787 43.53l-35.105 36.509c-9.361 9.361-16.382 18.255-21.063 26.212-3.745 6.085-5.149 11.234-5.149 15.914 0 3.745 1.404 9.361 3.745 14.978 3.276 7.489 8.425 15.914 14.978 24.808l108.592 153.526c4.681 6.553 10.297 11.234 17.318 14.51 7.489 3.276 15.446 5.149 23.403 5.149zM410.027 315.939l7.489-31.829-12.638 32.765c2.34 0.468 4.213 0 5.149-0.936z" />
<glyph unicode="&#xe913;" d="M224.068 652.44l287.932 287.932v-984.745z" />
<glyph unicode="&#xe914;" glyph-name="time" d="M512 851.394c222.788 0 403.394-180.606 403.394-403.394s-180.606-403.394-403.394-403.394c-222.788 0-403.394 180.606-403.394 403.394s180.606 403.394 403.394 403.394zM512 812.606c-201.366 0-364.606-163.24-364.606-364.606s163.24-364.606 364.606-364.606c201.366 0 364.606 163.24 364.606 364.606s-163.24 364.606-364.606 364.606zM512 680.727c9.737 0 17.798-7.176 19.184-16.528l0.21-2.866v-205.328l122.32-122.292c6.732-6.732 7.48-17.183 2.244-24.741l-2.244-2.686c-6.732-6.732-17.183-7.48-24.741-2.244l-2.686 2.244-128 128c-2.91 2.91-4.799 6.649-5.439 10.661l-0.242 3.052v213.333c0 10.711 8.683 19.394 19.394 19.394z" />
<glyph unicode="&#xe916;" glyph-name="arrow-left-11-copy-8" horiz-adv-x="512" d="M87.059 933.281c-16.662 16.662-43.677 16.662-60.34 0-15.148-15.148-16.525-38.851-4.131-55.554l4.131-4.785 370.917-370.917c25.333-25.333 27.021-65.93 5.067-93.297l-5.067-5.652-370.917-370.916c-16.662-16.662-16.662-43.677 0-60.34 15.148-15.148 38.851-16.525 55.554-4.131l4.785 4.131 370.917 370.916c57.947 57.947 60.362 151.004 7.243 211.877l-7.243 7.752-370.917 370.917z" />
<glyph unicode="&#xe917;" d="M512-44.373l-287.932 696.813 287.932 287.932 288.215-288.215z" />
<glyph unicode="&#xe918;" d="M512-44.373l-287.932 696.813 287.932 287.932z" />
<glyph unicode="&#xe919;" glyph-name="telegram" horiz-adv-x="1152" d="M1097.735 947.157c22.775 8.857 46.031-9.939 43.438-33.181l-0.795-4.404-237.037-948.148c-5.656-22.623-32.421-31.352-50.237-17.863l-3.435 2.997-270.213 270.232-155.634-207.545c-14.52-19.36-43.822-15.962-54.154 4.716l-1.803 4.364-114.339 343.019-225.17 112.553c-23.366 11.683-23.262 44.235-1.601 56.412l4.314 2.034 1066.667 414.815zM1063.253 865.109l-941.739-366.251 172.5-86.237c6.073-3.036 10.982-7.903 14.076-13.851l1.971-4.652 99.197-297.607 124.459 165.973-39.604 39.628c-11.361 11.361-12.393 29.138-3.098 41.666l3.098 3.589 237.037 237.037c12.497 12.497 32.758 12.497 45.255 0 11.361-11.361 12.393-29.138 3.098-41.666l-3.098-3.589-214.443-214.372 292.949-292.949 208.341 833.28z" />
<glyph unicode="&#xe91a;" glyph-name="share" d="M899.296 415.883c-17.687 0-32.582 13.498-34.909 31.185-11.171 105.193-67.956 200.613-155.462 261.122-15.825 11.171-19.549 32.582-8.844 48.407 11.171 15.825 33.047 19.549 48.407 8.844 104.262-72.145 171.287-185.716 184.785-310.925 1.862-19.084-11.636-36.305-31.185-38.633-0.465 0-1.862 0-2.793 0zM101.894 413.56c-1.396 0-2.327 0-3.724 0-19.084 2.327-33.047 19.549-31.185 38.633 12.567 125.209 79.127 238.314 181.993 311.39 15.825 11.171 37.702 7.447 48.873-8.378s7.447-37.702-8.378-48.873c-86.575-60.975-142.429-156.394-153.135-261.587-1.396-17.687-16.756-31.185-34.444-31.185zM500.793-28.166c-68.887 0-134.518 15.825-195.958 46.545-17.222 8.844-24.204 29.789-15.36 47.011s29.789 24.204 47.011 15.36c100.54-50.735 221.558-51.665 323.027-2.793 17.222 8.378 38.167 0.931 46.545-16.291s0.931-38.167-16.291-46.545c-59.578-28.858-122.88-43.287-188.975-43.287zM500.853 631.389c-90.764 0-164.308 73.542-164.308 164.305s73.544 164.305 164.308 164.305c90.764 0 164.305-73.542 164.305-164.305s-74.007-164.305-164.305-164.305zM500.853 889.716c-52.131 0-94.492-42.356-94.492-94.487s42.361-94.487 94.492-94.487c52.131 0 94.487 42.356 94.487 94.487s-42.822 94.487-94.487 94.487zM164.305 62.137c-90.764 0-164.305 73.542-164.305 164.305 0 90.298 73.542 164.305 164.305 164.305s164.305-73.542 164.305-164.305c0-90.298-73.542-164.305-164.305-164.305zM164.305 320.93c-52.131 0-94.487-42.356-94.487-94.487s42.356-94.487 94.487-94.487c52.131 0 94.487 42.356 94.487 94.487s-42.356 94.487-94.487 94.487zM831.759 62.137c-90.764 0-164.305 73.542-164.305 164.305 0 90.298 73.542 164.305 164.305 164.305s164.305-73.542 164.305-164.305c-0.465-90.298-74.007-164.305-164.305-164.305zM831.759 320.93c-52.131 0-94.487-42.356-94.487-94.487s42.356-94.487 94.487-94.487c52.131 0 94.487 42.356 94.487 94.487-0.465 52.131-42.356 94.487-94.487 94.487z" />
<glyph unicode="&#xe91b;" glyph-name="star" d="M763.815-33.745c-24.669 0-56.32 7.913-95.884 31.185l-139.171 82.385c-14.429 8.378-42.356 8.378-56.32 0l-139.635-82.385c-82.385-48.873-130.793-29.324-152.669-13.498-21.411 15.825-54.924 56.32-33.047 149.411l33.047 142.895c3.724 14.895-3.724 40.495-14.895 51.665l-115.433 115.433c-57.716 57.716-53.062 107.055-45.149 131.257s33.047 67.025 113.105 80.524l148.48 24.669c13.964 2.327 33.978 17.222 40.029 29.789l82.385 164.305c37.235 74.938 86.108 86.109 111.708 86.109s74.473-11.171 111.709-86.109l81.92-163.84c6.516-12.567 26.531-27.462 40.495-29.789l148.48-24.669c80.524-13.498 105.658-56.32 113.105-80.524s12.102-73.541-45.149-131.257l-115.433-115.898c-11.171-11.171-18.153-36.305-14.895-51.665l33.047-142.895c21.411-93.091-11.636-133.585-33.047-149.411-11.636-8.378-30.255-17.687-56.785-17.687zM500.368 156.161c22.807 0 45.615-5.585 63.767-16.291l139.171-82.385c40.495-24.204 66.095-24.204 75.869-17.222s16.756 31.651 6.516 77.265l-33.047 142.895c-8.844 38.633 5.585 88.436 33.513 116.829l115.433 115.433c22.807 22.807 33.047 45.149 28.393 60.509-5.12 15.359-26.531 27.926-58.182 33.046l-148.48 24.669c-35.84 6.051-74.938 34.909-91.229 67.491l-81.92 163.84c-14.895 29.789-33.513 47.476-49.804 47.476s-34.909-17.687-49.338-47.476l-82.385-163.84c-16.291-32.582-55.389-61.44-91.229-67.491l-148.015-24.669c-31.651-5.12-53.062-17.688-58.182-33.046-5.12-15.36 5.585-38.167 28.393-60.509l115.433-115.433c27.927-27.927 42.356-78.196 33.513-116.829l-33.047-142.895c-10.705-46.080-3.258-70.284 6.516-77.265s34.909-6.516 75.869 17.222l139.17 82.385c17.687 10.705 40.495 16.291 63.302 16.291z" />
<glyph unicode="&#xe91c;" glyph-name="share-2" d="M768 854.069c82.881 0 150.069-67.188 150.069-150.069s-67.188-150.069-150.069-150.069c-51.435 0-96.826 25.876-123.866 65.321l-244.944-126.205c4.469-14.22 6.878-29.352 6.878-45.047s-2.409-30.827-6.878-45.047l244.944-126.205c27.040 39.445 72.431 65.321 123.866 65.321 82.881 0 150.069-67.188 150.069-150.069s-67.188-150.069-150.069-150.069c-82.881 0-150.069 67.188-150.069 150.069 0 15.695 2.409 30.827 6.878 45.047l-244.944 126.205c-27.040-39.445-72.431-65.321-123.866-65.321-82.881 0-150.069 67.188-150.069 150.069s67.188 150.069 150.069 150.069c51.435 0 96.826-25.876 123.866-65.321l244.944 126.205c-4.469 14.22-6.878 29.352-6.878 45.047 0 82.881 67.188 150.069 150.069 150.069zM768 297.931c-41.362 0-77.188-23.706-94.63-58.273-0.226-0.788-0.565-1.549-0.951-2.298l-0.63-0.973c-6.239-13.501-9.72-28.537-9.72-44.387 0-58.504 47.427-105.931 105.931-105.931s105.931 47.427 105.931 105.931c0 58.504-47.427 105.931-105.931 105.931zM256 553.931c-58.504 0-105.931-47.427-105.931-105.931s47.427-105.931 105.931-105.931c41.362 0 77.188 23.706 94.63 58.273 0.226 0.788 0.565 1.549 0.951 2.298l0.63 0.973c6.239 13.501 9.72 28.537 9.72 44.387s-3.481 30.886-9.72 44.387c-0.258 0.275-0.448 0.621-0.63 0.973l-0.951 2.298c-17.443 34.567-53.268 58.273-94.63 58.273zM768 809.931c-58.504 0-105.931-47.427-105.931-105.931 0-15.849 3.481-30.886 9.72-44.387 0.258-0.275 0.448-0.621 0.63-0.973l0.951-2.298c17.443-34.567 53.268-58.273 94.63-58.273 58.504 0 105.931 47.427 105.931 105.931s-47.427 105.931-105.931 105.931z" />
<glyph unicode="&#xe91d;" glyph-name="remove" d="M732.69 412.69h-423.724c-14.477 0-26.483 12.006-26.483 26.483s12.006 26.483 26.483 26.483h423.724c14.477 0 26.483-12.006 26.483-26.483s-12.006-26.483-26.483-26.483zM918.069 960c58.504 0 105.931-47.427 105.931-105.931v-812.138c0-58.504-47.427-105.931-105.931-105.931h-812.138c-58.504 0-105.931 47.427-105.931 105.931v812.138c0 58.504 47.427 105.931 105.931 105.931h812.138zM918.069 924.69h-812.138c-37.23 0-67.731-28.809-70.427-65.35l-0.194-5.271v-812.138c0-37.23 28.809-67.731 65.35-70.427l5.271-0.194h812.138c37.23 0 67.731 28.809 70.427 65.35l0.194 5.271v812.138c0 37.23-28.809 67.731-65.35 70.427l-5.271 0.194z" />
<glyph unicode="&#xe91e;" glyph-name="quotation" horiz-adv-x="1124" d="M406.596 929.882c29.175 0 53.967-10.545 74.384-31.58 19.426-20.015 29.702-44.067 30.899-72.132v0l0.122-517.798c0-46.38-8.749-90.647-26.277-132.795-17.542-42.178-41.207-78.695-71.093-109.497-29.809-30.712-65.146-55.047-105.961-73.066-37.785-16.677-77.334-25.609-118.655-26.768v0l-54.483-0.13c-4.001 0-7.315 1.757-10.161 4.683-2.585 2.664-4.254 5.691-4.742 9.184v0l-0.163 95.671c0 4.549 1.694 8.442 4.893 11.738v0l55.343 4.695c58.305 0 108.115 21.173 149.383 63.681 39.197 40.397 59.648 88.759 61.333 145.128v0l0.111 30.739c0 27.671-9.511 51.128-28.274 70.442-17.818 18.351-39.228 28.053-64.095 29.359v0l-163.629 0.142c-29.18 0-53.976 10.554-74.398 31.587-19.43 20.015-29.699 44.065-30.894 72.127v0l-0.122 285.068c0 30.536 10.261 56.548 31.014 77.936 19.109 19.68 42.021 30.234 68.833 31.461v0zM988.853 929.882c29.183 0 53.972-10.547 74.396-31.591 21.475-22.109 30.056-82.549 30.962-116.062v0l0.064-473.856c0-46.38-8.753-90.656-26.281-132.799-17.53-42.167-41.208-78.69-71.102-109.492-29.812-30.713-65.146-55.048-105.953-73.066-37.79-16.678-77.339-25.609-118.655-26.768v0l-54.49-0.13c-3.983 0-7.297 1.742-10.158 4.689-2.586 2.663-4.257 5.688-4.746 9.18v0l-0.163 95.669c0 4.547 1.698 8.438 4.915 11.749v0l55.333 4.683c58.312 0 108.112 21.173 149.376 63.678 39.207 40.398 59.658 88.76 61.344 145.13v0l0.111 30.739c0 27.661-9.519 51.104-28.273 70.44-17.814 18.35-39.238 28.055-64.107 29.361v0l-163.632 0.142c-29.183 0-53.972 10.553-74.387 31.585-20.552 21.177-29.878 61.991-30.925 92.989v0l-0.089 221.638c0 32.492 8.576 97.385 31.014 120.51 19.1 19.679 42.011 30.231 68.821 31.458v0z" />
<glyph unicode="&#xe91f;" glyph-name="product" horiz-adv-x="1081" d="M1024 319.999l1.007-0.012c1.101-0.026 2.201-0.094 3.297-0.205l-4.304 0.216c2.705 0 5.351-0.252 7.917-0.733 0.517-0.1 1.069-0.215 1.618-0.34 1.482-0.335 2.911-0.744 4.308-1.223 0.415-0.144 0.85-0.3 1.284-0.464 1.212-0.46 2.374-0.962 3.507-1.513 0.758-0.365 1.551-0.78 2.333-1.221 0.882-0.503 1.725-1.020 2.547-1.564 0.738-0.484 1.472-1.003 2.194-1.549 3.294-2.492 6.228-5.463 8.687-8.806l-4.254 4.946c1.966-1.962 3.7-4.067 5.203-6.283 0.842-1.249 1.621-2.539 2.332-3.872 0.359-0.67 0.683-1.318 0.989-1.973 0.67-1.431 1.282-2.954 1.805-4.517 0.124-0.378 0.239-0.74 0.35-1.104 1.203-3.936 1.848-8.118 1.848-12.451 0-2.204-0.167-4.369-0.489-6.483-0.085-0.535-0.177-1.070-0.279-1.603-0.301-1.587-0.693-3.142-1.167-4.66-0.158-0.499-0.33-1.014-0.511-1.526-0.543-1.533-1.16-2.998-1.854-4.419-0.24-0.498-0.512-1.030-0.796-1.557-0.747-1.376-1.551-2.686-2.421-3.948-0.263-0.387-0.539-0.773-0.822-1.156-1.576-2.086-3.024-3.725-4.588-5.246l-284.551-285.126c-16.646-16.679-43.661-16.706-60.34-0.060-15.163 15.133-16.563 38.835-4.187 55.55l4.126 4.79 212.358 212.776-864.256-0.001c-23.564 0-42.667 19.103-42.667 42.667 0 21.6 16.051 39.452 36.877 42.277l5.79 0.389h967.111zM372.042 933.311c15.163-15.132 16.563-38.835 4.187-55.55l-4.126-4.79-212.472-212.776 864.37-0.001c23.564 0 42.667-19.103 42.667-42.667 0-21.6-16.051-39.452-36.877-42.277l-5.79-0.389-968.742 0.032c-0.835 0.032-1.67 0.088-2.502 0.168l4.133-0.201c-2.705 0-5.351 0.252-7.917 0.733-0.517 0.102-1.069 0.216-1.618 0.341-1.482 0.334-2.911 0.743-4.308 1.221-0.415 0.145-0.85 0.302-1.284 0.466-1.212 0.458-2.374 0.961-3.507 1.512-0.758 0.366-1.551 0.781-2.333 1.223-0.882 0.502-1.725 1.018-2.547 1.563-0.738 0.485-1.472 1.005-2.194 1.55-3.294 2.491-6.228 5.462-8.687 8.804l4.254-4.945c-1.966 1.962-3.7 4.067-5.203 6.283-0.842 1.248-1.621 2.538-2.332 3.871-0.359 0.671-0.683 1.319-0.989 1.974-0.67 1.43-1.282 2.953-1.805 4.516-0.124 0.379-0.239 0.741-0.35 1.105-1.203 3.935-1.848 8.117-1.848 12.45 0 2.204 0.167 4.369 0.489 6.483 0.085 0.537 0.177 1.071 0.279 1.604 0.301 1.586 0.693 3.141 1.167 4.659 0.158 0.501 0.33 1.015 0.511 1.527 0.543 1.531 1.16 2.997 1.854 4.418 0.24 0.499 0.512 1.031 0.796 1.558 0.747 1.374 1.551 2.685 2.421 3.946 0.263 0.388 0.539 0.774 0.822 1.157 1.576 2.084 3.024 3.724 4.588 5.244l284.551 285.127c16.646 16.679 43.661 16.706 60.34 0.060z" />
<glyph unicode="&#xe920;" glyph-name="pinn" d="M258.072 744.586c140.241 140.239 367.614 140.239 507.855 0s140.245-367.612 0.008-507.856v0l-181.041-181.041c-40.259-40.218-105.489-40.218-145.752 0.005v0l-181.079 181.036c-140.236 140.244-140.232 367.617 0.009 507.855zM740.786 719.445c-126.356 126.354-331.217 126.354-457.573 0s-126.359-331.215-0.010-457.571v0l181.072-181.030c26.377-26.35 69.113-26.35 95.483-0.006v0l181.034 181.034c126.352 126.358 126.348 331.219-0.008 457.573zM512 636.444c80.511 0 145.778-65.267 145.778-145.778s-65.267-145.778-145.778-145.778c-80.511 0-145.778 65.267-145.778 145.778s65.267 145.778 145.778 145.778zM512 600.889c-60.874 0-110.222-49.348-110.222-110.222s49.348-110.222 110.222-110.222c60.874 0 110.222 49.348 110.222 110.222s-49.348 110.222-110.222 110.222z" />
<glyph unicode="&#xe921;" glyph-name="pin" horiz-adv-x="890" d="M133.668 825.39c172.026 173.181 451.011 173.181 623.037 0 171.92-173.075 171.925-453.606 0.010-626.687v0l-218.416-219.887c-51.404-51.698-134.771-51.698-186.182 0.008v0l-218.46 219.879c-171.914 173.080-171.909 453.612 0.011 626.687zM456.317 707.316c-101.161 0-183.090-82.481-183.090-184.13s81.929-184.13 183.090-184.13c101.161 0 183.090 82.481 183.090 184.13s-81.929 184.13-183.090 184.13z" />
<glyph unicode="&#xe922;" glyph-name="mail" d="M833.939 766.061c44.986 0 81.455-36.468 81.455-81.455v0-473.212c0-44.986-36.468-81.455-81.455-81.455v0h-643.879c-44.986 0-81.455 36.468-81.455 81.455v0 473.212c0 44.986 36.468 81.455 81.455 81.455v0zM876.606 625.121l-353.848-235.924c-5.584-3.723-12.617-4.254-18.614-1.595l-2.901 1.595-353.848 235.893v-413.696c0-22.178 16.921-40.404 38.558-42.471l4.109-0.195h643.879c23.564 0 42.667 19.103 42.667 42.667v0 413.727zM833.939 727.273h-643.879c-23.564 0-42.667-19.103-42.667-42.667v0-12.878l364.606-243.060 364.606 243.091v12.847c0 22.178-16.921 40.404-38.558 42.471l-4.109 0.195z" />
<glyph unicode="&#xe923;" glyph-name="like-1" horiz-adv-x="1126" d="M550.4-28.16c-15.872 0-31.232 2.048-44.032 6.656-195.584 67.072-506.368 305.152-506.368 656.896 0 179.2 144.896 324.608 323.072 324.608 86.528 0 167.424-33.792 227.328-94.208 59.904 60.416 140.8 94.208 227.328 94.208 178.176 0 323.072-145.92 323.072-324.608 0-352.256-310.784-589.824-506.368-656.896-12.8-4.608-28.16-6.656-44.032-6.656zM323.072 883.2c-135.68 0-246.272-111.104-246.272-247.808 0-349.696 336.384-544.256 454.656-584.704 9.216-3.072 29.184-3.072 38.4 0 117.76 40.448 454.656 234.496 454.656 584.704 0 136.704-110.592 247.808-246.272 247.808-77.824 0-150.016-36.352-196.608-99.328-14.336-19.456-47.104-19.456-61.44 0-47.616 63.488-119.296 99.328-197.12 99.328z" />
<glyph unicode="&#xe924;" glyph-name="fax" d="M640 851.394c55.911 0 101.589-43.814 104.572-98.981l0.155-5.746v-151.273h65.939c55.911 0 101.589-43.814 104.572-98.981l0.155-5.746v-170.667c0-55.911-43.814-101.589-98.981-104.572l-5.746-0.155h-65.939v-89.212c0-43.256-33.717-78.637-76.303-81.294l-5.151-0.16h-302.545c-44.986 0-81.455 36.468-81.455 81.455v0 89.212h-65.939c-55.911 0-101.589 43.814-104.572 98.981l-0.155 5.746v170.667c0 55.911 43.814 101.589 98.981 104.572l5.746 0.155h65.939v151.273c0 55.911 43.814 101.589 98.981 104.572l5.746 0.155h256zM663.273 385.939h-302.545c-23.564 0-42.667-19.103-42.667-42.667v0-217.212c0-23.564 19.103-42.667 42.667-42.667v0h302.545c23.564 0 42.667 19.103 42.667 42.667v0 217.212c0 23.564-19.103 42.667-42.667 42.667v0zM810.667 556.606h-597.333c-34.834 0-63.359-27.011-65.774-61.23l-0.166-4.709v-170.667c0-34.834 27.011-63.359 61.23-65.774l4.709-0.166h65.939v89.212c0 43.256 33.717 78.637 76.303 81.294l5.151 0.16h302.545c44.986 0 81.455-36.468 81.455-81.455v0-89.212h65.939c34.834 0 63.359 27.011 65.774 61.23l0.166 4.709v170.667c0 34.834-27.011 63.359-61.23 65.774l-4.709 0.166zM640 812.606h-256c-34.834 0-63.359-27.011-65.774-61.23l-0.166-4.709v-151.273h387.848l0.031 151.273c0 34.834-27.011 63.359-61.23 65.774l-4.709 0.166z" />
<glyph unicode="&#xe925;" d="M362.835 810.987l149.165-358.955 149.165 358.955-149.165 149.013z" />
<glyph unicode="&#xe926;" d="M658.623 806.803h212.18v-212.389l-362.835-150.446z" />
<glyph unicode="&#xe927;" d="M153.197 806.803v-212.389l362.835-150.446-150.728 362.835z" />
<glyph unicode="&#xe928;" d="M362.835 87.532l149.165 364.5 149.165-364.5-149.165-151.532z" />
<glyph unicode="&#xe929;" d="M658.623 89.197h212.18v212.53l-362.835 150.304z" />
<glyph unicode="&#xe92a;" d="M153.197 89.197v212.53l362.835 150.304-150.728-362.835z" />
<glyph unicode="&#xe92b;" d="M872.853 597.165l151.147-149.254-151.147-149.077-364.884 149.077z" />
<glyph unicode="&#xe92c;" d="M151.173 298.835l-151.173 149.077 151.173 149.254 364.858-149.254z" />
<glyph unicode="&#xe92d;" d="M0 443.969l151.173 153.197 364.858-153.197z" />
<glyph unicode="&#xe92e;" d="M507.969 960l153.197-149.013-153.197-358.955z" />
<glyph unicode="&#xe92f;" d="M1024 452.031l-151.147-153.197-364.884 153.197z" />
<glyph unicode="&#xe930;" d="M516.031-64l-153.197 151.532 153.197 364.5z" />
<glyph unicode="&#xe931;" d="M870.803 89.197h-212.18l-150.654 362.835z" />
<glyph unicode="&#xe932;" d="M153.286 89.197l-0.089 212.53 362.835 150.304z" />
<glyph unicode="&#xe933;" d="M516.031 443.969l-362.835 150.446 0.089 212.389z" />
<glyph unicode="&#xe934;" d="M658.623 806.803h212.18l-362.835-362.835z" />
<glyph unicode="&#xe935;" d="M507.128 871.407l-121.181-121.057 121.181-291.612 121.181 291.612z" />
<glyph unicode="&#xe936;" d="M503.853 452.187l122.39 294.764h172.374v-172.543z" />
<glyph unicode="&#xe937;" d="M387.953 746.951h-172.314v-172.543l294.764-122.221z" />
<glyph unicode="&#xe938;" d="M507.128 39.517l-121.181 123.103 121.181 296.117 121.181-296.117z" />
<glyph unicode="&#xe939;" d="M503.853 458.737l122.39-294.764h172.374v172.658z" />
<glyph unicode="&#xe93a;" d="M387.953 163.973h-172.314v172.658l294.764 122.106z" />
<glyph unicode="&#xe93b;" d="M503.853 455.39l296.429 121.253 122.791-121.253-122.791-121.109z" />
<glyph unicode="&#xe93c;" d="M510.404 455.39l-296.408-121.109-122.812 121.109 122.812 121.253z" />
<glyph unicode="&#xe93d;" d="M510.404 452.187h-419.22l122.812 124.456z" />
<glyph unicode="&#xe93e;" d="M503.853 458.737v412.67l124.456-121.057z" />
<glyph unicode="&#xe93f;" d="M503.853 458.737h419.22l-122.791-124.456z" />
<glyph unicode="&#xe940;" d="M510.404 458.737v-419.22l-124.456 123.103z" />
<glyph unicode="&#xe941;" d="M503.853 458.737l294.764-294.764h-172.374z" />
<glyph unicode="&#xe942;" d="M510.404 458.737l-294.692-294.764-0.072 172.658z" />
<glyph unicode="&#xe943;" d="M215.712 746.951l294.692-294.764-294.764 122.221z" />
<glyph unicode="&#xe944;" d="M503.853 452.187l122.39 294.764h172.374z" />
<glyph unicode="&#xe945;" glyph-name="call" d="M384 808.727c6.939 0 13.266-3.697 16.713-9.553l1.294-2.638 85.333-213.333c3.142-7.856 0.804-16.707-5.487-22.017l-2.541-1.816-91.029-54.584 3.308-6.054c40.341-71.603 99.538-130.8 171.141-171.141l6.023-3.277 54.615 90.998c4.353 7.255 12.815 10.749 20.849 8.953l2.984-0.924 213.333-85.333c6.443-2.577 10.945-8.359 11.969-15.077l0.222-2.93v-170.667c0-57.839-46.888-104.727-105.904-104.692-354.205 21.525-636.657 303.977-658.218 659.358 0 55.911 43.814 101.589 98.981 104.572l5.746 0.155h170.667zM370.843 769.97l-157.51-0.031c-36.417 0-65.939-29.522-65.975-64.763 20.336-334.636 287.183-601.482 620.642-621.782 34.834 0 63.359 27.011 65.774 61.23l0.166 4.709-0.031 157.541-185.809 74.318-55.469-92.503c-4.616-7.693-13.791-11.096-22.131-8.622l-3.078 1.206c-96.481 47.582-174.566 125.668-222.149 222.149-3.968 8.046-1.861 17.603 4.735 23.274l2.681 1.934 92.472 55.5-74.318 185.84z" />
<glyph unicode="&#xe946;" glyph-name="calendar" horiz-adv-x="922" d="M665.6 940.8c16.066 0 29.367-11.84 31.653-27.271l0.347-4.729 0.038-70.902c114.373-7.696 204.762-102.908 204.762-219.231v0-443.733c0-121.355-98.378-219.733-219.733-219.733v0h-443.733c-121.355 0-219.733 98.378-219.733 219.733v0 443.733c0 116.341 90.416 211.564 204.813 219.235l-0.013 70.899c0 17.673 14.327 32 32 32 16.066 0 29.367-11.84 31.653-27.271l0.347-4.729v-70.4h345.6v70.4c0 17.673 14.327 32 32 32zM838.4 467.2h-755.2v-292.267c0-82.937 64.833-150.732 146.583-155.469l9.151-0.264h443.733c86.009 0 155.733 69.724 155.733 155.733v0 292.267zM563.2 275.2c17.673 0 32-14.327 32-32 0-16.066-11.84-29.367-27.271-31.653l-4.729-0.347h-204.8c-17.673 0-32 14.327-32 32 0 16.066 11.84 29.367 27.271 31.653l4.729 0.347h204.8zM633.6 774.4h-345.6v-70.4c0-17.673-14.327-32-32-32-16.066 0-29.367 11.84-31.653 27.271l-0.347 4.729 0.031 69.696c-79.019-7.501-140.831-74.047-140.831-155.030v0-87.467h755.2v87.467c0 80.965-61.786 147.499-140.78 155.025l-0.020-69.691c0-17.673-14.327-32-32-32-16.066 0-29.367 11.84-31.653 27.271l-0.347 4.729v70.4z" />
<glyph unicode="&#xe947;" glyph-name="basket" horiz-adv-x="931" d="M698.029 713.685l0.191-9.765 0.001-37.32c153.668-16.273 210.875-101.112 195.22-242.558v0l-36.049-288.787c-16.746-126.523-87.715-187.232-263.9-187.232v0h-279.273c-180.821 0-250.816 63.946-265.040 196.746v0l-34.967 279.763c-15.602 140.994 41.598 225.783 195.232 242.064l0.048 28.481c0 124.339 99.37 240.807 220.513 252.113 141.090 13.688 262.575-94.258 268.024-233.505zM640.038 599.659h-372.364c-154.765 0-197.035-50.253-184.124-166.957v0l35.987-288.388c11.972-91.807 54.054-126.473 194.682-126.473v0h279.273c144.89 0 185.171 36.799 195.76 135.588v0l34.851 278.782c12.968 117.194-29.301 167.448-184.066 167.448v0zM616.975 494.932c25.706 0 46.545-20.839 46.545-46.545 0-23.87-17.968-43.544-41.117-46.232l-5.428-0.313c-26.125 0-46.964 20.839-46.964 46.545 0 23.87 17.968 43.544 41.117 46.232l5.847 0.313zM291.109 494.932c25.706 0 46.545-20.839 46.545-46.545 0-23.87-17.968-43.544-41.117-46.232l-5.428-0.313c-26.124 0-46.963 20.839-46.963 46.545 0 23.87 17.968 43.544 41.117 46.232l5.846 0.313zM436.62 877.686c-81.551-7.611-152.434-87.758-157.069-173.701l-0.241-8.909-0.034-25.569h349.091l0.034 34.412c0 102.835-88.449 183.79-191.781 173.766z" />
<glyph unicode="&#xe948;" glyph-name="add" d="M918.069 960c58.504 0 105.931-47.427 105.931-105.931v-812.138c0-58.504-47.427-105.931-105.931-105.931h-812.138c-58.504 0-105.931 47.427-105.931 105.931v812.138c0 58.504 47.427 105.931 105.931 105.931h812.138zM918.069 924.69h-812.138c-37.23 0-67.731-28.809-70.427-65.35l-0.194-5.271v-812.138c0-37.23 28.809-67.731 65.35-70.427l5.271-0.194h812.138c37.23 0 67.731 28.809 70.427 65.35l0.194 5.271v812.138c0 37.23-28.809 67.731-65.35 70.427l-5.271 0.194zM494.345 668.69c13.407 0 24.487-9.963 26.241-22.889l0.242-3.594v-185.379h185.379c14.626 0 26.483-11.857 26.483-26.483 0-13.407-9.963-24.487-22.889-26.241l-3.594-0.242h-185.379v-185.379c0-14.626-11.857-26.483-26.483-26.483-13.407 0-24.487 9.963-26.241 22.889l-0.242 3.594v185.379h-185.379c-14.626 0-26.483 11.857-26.483 26.483 0 13.407 9.963 24.487 22.889 26.241l3.594 0.242h185.379v185.379c0 14.626 11.857 26.483 26.483 26.483z" />
<glyph unicode="&#xe949;" glyph-name="whatsapp" horiz-adv-x="1062" d="M847.21 829.072c194.682-166.052 235.399-451.018 95.009-664.946-138.088-210.421-408.956-287.448-636.494-182.84l-2.81 1.363-261.602-46.616-3.669-0.204-2.349 0.121-1.356 0.159-3.697 0.781-2.139 0.691-3.337 1.481-3.111 1.888-2.846 2.267-1.476 1.432-1.067 1.188-1.29 1.632-0.909 1.312-1.816 3.242-1.394 3.512-0.507 1.77-0.426 1.984-0.422 3.845-0.026 1.428 0.28 3.705 0.781 3.697 1.299 3.644 81.652 188.061-5.306 8.151c-128.395 203.295-96.467 470.102 77.94 637.323l9.479 8.862c189.105 172.377 476.926 177.119 671.609 11.067zM213.925 775.962c-167.92-153.065-195.718-407.159-64.865-592.91 4.897-6.951 6.386-15.659 4.224-23.736l-1.387-3.975-66.791-153.73 216.796 38.606c4.459 0.795 9.022 0.509 13.312-0.803l4.186-1.653c204.066-99.915 450.594-32.385 575.256 157.577s88.507 443.002-84.365 590.451c-172.872 147.449-428.447 143.238-596.367-9.827zM384.121 658.483c28.628 0 52.154-21.842 54.823-49.771l0.252-5.304v-53.261c0-26.839-19.197-49.193-44.609-54.082l-2.394-0.317 1.166-4.792c21.463-83.805 87.439-149.781 171.244-171.244l4.741-1.115 0.368 2.343c4.563 23.718 24.34 42.022 48.778 44.357l5.304 0.252h53.261c30.417 0 55.075-24.658 55.075-55.075 0-28.628-21.842-52.154-49.771-54.823l-5.304-0.252h-53.261c-159.654 0-289.661 126.936-294.602 285.392l-0.146 9.357v53.261c0 30.417 24.658 55.075 55.075 55.075z" />
<glyph unicode="&#xe94a;" glyph-name="wallet" d="M756.053 955.733c51.68 0 94.171-39.807 97.623-90.408l0.226-6.659-0.014-137.6h21.063c51.68 0 94.171-39.807 97.623-90.408l0.226-6.659v-176c0-21.208-17.192-38.4-38.4-38.4-19.576 0-35.731 14.649-38.101 33.583l-0.299 4.817v176c0 9.847-7.357 18.201-17.236 19.936l-3.813 0.33h-713.387c-29.404 0-56.945 7.996-80.508 21.92l0.010-570.186c0-41.409 32.587-75.539 74.192-78.695l6.305-0.238h713.387c10.434 0 18.95 7.26 20.713 16.654l0.335 3.613v176c0 21.208 17.192 38.4 38.4 38.4 19.576 0 35.731-14.649 38.101-33.583l0.299-4.817v-176c0-51.485-40.338-93.437-91.163-96.843l-6.686-0.223h-713.387c-83.961 0-152.73 65.191-157.079 147.452l-0.218 8.281v704c0 83.346 66.060 151.225 148.954 155.518l8.344 0.216h594.489zM756.053 878.933h-594.489c-44.571 0-80.498-35.454-80.498-78.933 0-41.409 32.587-75.539 74.192-78.695l6.305-0.238h615.524l0.014 137.6c0 9.847-7.357 18.201-17.236 19.936l-3.813 0.33zM981.333 486.4c19.576 0 35.731-14.649 38.101-33.583l0.299-4.817v-234.667c0-19.576-14.649-35.731-33.583-38.101l-4.817-0.299h-250.311c-89.795 0-163.556 69.15-163.556 155.733 0 83.79 69.078 151.254 154.918 155.519l8.638 0.214h250.311zM942.933 251.733v157.867h-211.911c-46.141 0-83.084-32.575-86.498-72.839l-0.258-6.094c0-40.971 34.746-75.497 79.906-78.692l6.849-0.241h211.911z" />
<glyph unicode="&#xe94b;" glyph-name="arrow" horiz-adv-x="512" d="M446.293-26.31c-10.809 0-21.618 3.982-30.151 12.516l-370.916 370.916c-60.302 60.302-60.302 159.289 0 219.591l370.916 370.914c16.498 16.498 43.804 16.498 60.302 0s16.498-43.804 0-60.302l-370.916-370.914c-27.307-27.307-27.307-71.68 0-98.987l370.916-370.916c16.498-16.498 16.498-43.804 0-60.302-8.533-7.964-19.342-12.516-30.151-12.516z" />
<glyph unicode="&#xe987;" glyph-name="linkedin" d="M882.858 950.519c57.601 0 104.296-46.695 104.296-104.296v0-769.080c0-57.601-46.695-104.296-104.296-104.296v0h-769.080c-57.601 0-104.296 46.695-104.296 104.296v0 769.080c0 57.601 46.695 104.296 104.296 104.296v0zM882.858 893.63h-769.080c-26.182 0-47.407-21.225-47.407-47.407v0-769.080c0-26.182 21.225-47.407 47.407-47.407v0h769.080c26.182 0 47.407 21.225 47.407 47.407v0 769.080c0 26.182-21.225 47.407-47.407 47.407v0zM268.122 547.676c14.4 0 26.301-10.701 28.185-24.585l0.26-3.86v-287.745c0-15.709-12.735-28.444-28.444-28.444-14.4 0-26.301 10.701-28.185 24.585l-0.26 3.86v287.745c0 15.709 12.735 28.444 28.444 28.444zM613.416 547.676c76.799 0 139.511-60.312 143.356-136.156l0.187-7.387v-172.647c0-15.709-12.735-28.444-28.444-28.444-14.4 0-26.301 10.701-28.185 24.585l-0.26 3.86v172.647c0 47.857-38.796 86.654-86.654 86.654s-86.654-38.796-86.654-86.654v-172.647c0-15.709-12.735-28.444-28.444-28.444-14.4 0-26.301 10.701-28.185 24.585l-0.26 3.86v287.745c0 15.709 12.735 28.444 28.444 28.444 14.4 0 26.301-10.701 28.185-24.585l0.26-3.86-0.001-0.653c24.081 18.262 54.102 29.097 86.655 29.097zM268.122 720.323c14.4 0 26.301-10.701 28.185-24.585l0.26-4.435c0-15.709-12.735-28.444-28.444-28.444-14.4 0-26.301 10.701-28.185 24.585l-0.26 4.435c0 15.709 12.735 28.444 28.444 28.444z" />
<glyph unicode="&#xe988;" glyph-name="instagram" d="M827.512 950.857c95.94 0 173.714-77.775 173.714-173.714v0-644.655c0-95.94-77.775-173.714-173.714-173.714v0h-644.655c-95.94 0-173.714 77.775-173.714 173.714v0 644.655c0 95.94 77.775 173.714 173.714 173.714v0zM827.512 896h-644.655c-65.643 0-118.857-53.214-118.857-118.857v0-644.655c0-65.643 53.214-118.857 118.857-118.857v0h644.655c65.643 0 118.857 53.214 118.857 118.857v0 644.655c0 65.643-53.214 118.857-118.857 118.857v0zM505.185 657.974c112.201 0 203.159-90.957 203.159-203.159s-90.957-203.159-203.159-203.159c-112.201 0-203.159 90.957-203.159 203.159s90.957 203.159 203.159 203.159zM505.185 603.117c-81.905 0-148.301-66.397-148.301-148.301s66.397-148.301 148.301-148.301c81.905 0 148.301 66.397 148.301 148.301s-66.397 148.301-148.301 148.301zM768.78 745.839c13.886 0 25.362-10.319 27.178-23.707l0.25-3.722c0-15.207-12.28-27.487-27.429-27.487-13.886 0-25.362 10.319-27.178 23.707l-0.25 3.722c0 15.207 12.28 27.487 27.429 27.487z" />
<glyph unicode="&#xe98a;" glyph-name="facebook" horiz-adv-x="649" d="M614.4 951.467c12.96 0 23.671-9.631 25.366-22.126l0.234-3.474v-211.006c0-12.96-9.631-23.671-22.126-25.366l-3.474-0.234h-158.255c-13.842 0-25.265-10.358-26.94-23.746l-0.212-3.406-0.006-79.897 185.412-0.006c15.544 0 27.226-13.634 25.43-28.589l-0.595-3.22-52.752-211.006c-2.533-10.13-10.904-17.572-20.984-19.101l-3.852-0.29h-132.661l0.006-343.661c0-12.96-9.631-23.671-22.126-25.366l-3.474-0.234h-211.006c-12.96 0-23.671 9.631-25.366 22.126l-0.234 3.474-0.012 343.661h-132.642c-12.96 0-23.671 9.631-25.366 22.126l-0.234 3.474v211.006c0 12.96 9.631 23.671 22.126 25.366l3.474 0.234 132.642 0.006 0.012 79.897c0 156.902 124.882 284.637 280.671 289.23l8.686 0.128h158.255zM588.8 900.267h-132.655c-128.791 0-233.704-102.23-238.019-229.97l-0.138-8.188v-105.503c0-12.96-9.631-23.671-22.126-25.366l-3.474-0.234-132.655 0.006v-159.812h132.655c12.96 0 23.671-9.631 25.366-22.126l0.234-3.474-0.012-343.654h159.812l0.006 343.654c0 12.96 9.631 23.671 22.126 25.366l3.474 0.234h138.234l39.97 159.812-178.204-0.006c-12.96 0-23.671 9.631-25.366 22.126l-0.234 3.474v105.503c0 41.469 32.217 75.414 72.987 78.171l5.364 0.181 132.655 0.028v159.778z" />
<glyph unicode="&#xe98d;" glyph-name="comparison-list" horiz-adv-x="1078" d="M1037.474 310.876c22.324 0 40.421-18.097 40.421-40.421 0-20.464-15.207-37.376-34.936-40.052l-5.485-0.369-862.316 0.025 173.414-231.244c12.177-16.236 10.292-38.65-3.569-52.655l-4.516-3.934c-16.236-12.177-38.65-10.292-52.655 3.569l-3.934 4.516-270.425 360.566h1024zM803.535 934.873l3.934-4.516 270.425-360.566h-1024c-22.324 0-40.421 18.097-40.421 40.421 0 20.464 15.207 37.376 34.936 40.052l5.485 0.369 862.316-0.043-173.414 231.262c-12.177 16.236-10.292 38.65 3.569 52.655l4.516 3.934c16.236 12.177 38.65 10.292 52.655-3.569z" />
</font>
</defs>
</svg>
