<?xml version="1.0" encoding="UTF-8"?>
<svg width="61px" height="61px" viewBox="0 0 61 61" version="1.1" xmlns="http://www.w3.org/2000/svg" xmlns:xlink="http://www.w3.org/1999/xlink">
    <title>Group 15 Copy 3</title>
    <g id="Page-1" stroke="none" stroke-width="1" fill="none" fill-rule="evenodd">
        <g id="Group-15-Copy-3" transform="translate(0.000000, -0.000000)" fill-rule="nonzero">
            <polygon id="Path" fill="#FFFFFF" points="21.6141732 8.87678074 30.5 30.2598425 39.3858268 8.87678074 30.5 -4.54747351e-13"></polygon>
            <polygon id="Path" fill="#FFFFFF" points="39.2343655 9.12598425 51.8740157 9.12598425 51.8740157 21.7780537 30.2598425 30.7401575"></polygon>
            <polygon id="Path" fill="#FFFFFF" points="9.12598425 9.12598425 9.12598425 21.7780537 30.7401575 30.7401575 21.7612277 9.12598425"></polygon>
            <polygon id="Path" fill="#FFFFFF" points="21.6141732 51.973213 30.5 30.2598425 39.3858268 51.973213 30.5 61"></polygon>
            <polygon id="Path" fill="#FFFFFF" points="39.2343655 51.8740157 51.8740157 51.8740157 51.8740157 39.2135271 30.2598425 30.2598425"></polygon>
            <polygon id="Path" fill="#FFFFFF" points="9.12598425 51.8740157 9.12598425 39.2135271 30.7401575 30.2598425 21.7612277 51.8740157"></polygon>
            <polygon id="Path" fill="#FFFFFF" points="51.9961156 21.6141732 61 30.5052672 51.9961156 39.3858268 30.2598425 30.5052672"></polygon>
            <polygon id="Path" fill="#FFFFFF" points="9.00544704 39.3858268 0 30.5052672 9.00544704 21.6141732 30.7401575 30.5052672"></polygon>
            <polygon id="Path" fill="#FFFFFF" points="0 30.7401575 9.00544704 21.6141732 30.7401575 30.7401575"></polygon>
            <polygon id="Path" fill="#FFFFFF" points="30.2598425 -4.54747351e-13 39.3858268 8.87678074 30.2598425 30.2598425"></polygon>
            <polygon id="Path" fill="#FFFFFF" points="61 30.2598425 51.9961156 39.3858268 30.2598425 30.2598425"></polygon>
            <polygon id="Path" fill="#FFFFFF" points="30.7401575 61 21.6141732 51.973213 30.7401575 30.2598425"></polygon>
            <polygon id="Path" fill="#FFFFFF" points="51.8740157 51.8740157 39.2343655 51.8740157 30.2598425 30.2598425"></polygon>
            <polygon id="Path" fill="#FFFFFF" points="9.13128965 51.8740157 9.12598425 39.2135271 30.7401575 30.2598425"></polygon>
            <polygon id="Path" fill="#FFFFFF" points="30.7401575 30.7401575 9.12598425 21.7780537 9.13128965 9.12598425"></polygon>
            <polygon id="Path" fill="#FFFFFF" points="39.2343655 9.12598425 51.8740157 9.12598425 30.2598425 30.7401575"></polygon>
            <g id="Group-6" transform="translate(5.431824, 5.277511)">
                <polygon id="Path" fill="#03326D" points="24.7779728 0 17.5591933 7.21143055 24.7779728 24.5828706 31.9967523 7.21143055"></polygon>
                <polygon id="Path" fill="#7DCBDB" points="24.5828706 24.9730749 31.8737062 7.41388162 42.142064 7.41388162 42.142064 17.6923286"></polygon>
                <polygon id="Path" fill="#7DCBDB" points="17.6786593 7.41388162 7.41388162 7.41388162 7.41388162 17.6923286 24.9730749 24.9730749"></polygon>
                <polygon id="Path" fill="#03326D" points="24.7779728 49.5559456 17.5591933 42.2226511 24.7779728 24.5828706 31.9967523 42.2226511"></polygon>
                <polygon id="Path" fill="#26B8CE" points="24.5828706 24.5828706 31.8737062 42.142064 42.142064 42.142064 42.142064 31.8567773"></polygon>
                <polygon id="Path" fill="#26B8CE" points="17.6786593 42.142064 7.41388162 42.142064 7.41388162 31.8567773 24.9730749 24.5828706"></polygon>
                <polygon id="Path" fill="#03326D" points="24.5828706 24.7822519 42.241257 17.5591933 49.5559456 24.7822519 42.241257 31.9967523"></polygon>
                <polygon id="Path" fill="#03326D" points="24.9730749 24.7822519 7.31595809 31.9967523 0 24.7822519 7.31595809 17.5591933"></polygon>
                <polygon id="Path" fill="#26427B" points="24.9730749 24.9730749 0 24.9730749 7.31595809 17.5591933"></polygon>
                <polygon id="Path" fill="#26427B" points="24.5828706 24.5828706 24.5828706 0 31.9967523 7.21143055"></polygon>
                <polygon id="Path" fill="#26427B" points="24.5828706 24.5828706 49.5559456 24.5828706 42.241257 31.9967523"></polygon>
                <polygon id="Path" fill="#26427B" points="24.9730749 24.5828706 24.9730749 49.5559456 17.5591933 42.2226511"></polygon>
                <polygon id="Path" fill="#7DCBDB" points="24.5828706 24.5828706 42.142064 42.142064 31.8737062 42.142064"></polygon>
                <polygon id="Path" fill="#7DCBDB" points="24.9730749 24.5828706 7.41819168 42.142064 7.41388162 31.8567773"></polygon>
                <polygon id="Path" fill="#26B8CE" points="7.41819168 7.41388162 24.9730749 24.9730749 7.41388162 17.6923286"></polygon>
                <polygon id="Path" fill="#26B8CE" points="24.5828706 24.9730749 31.8737062 7.41388162 42.142064 7.41388162"></polygon>
            </g>
        </g>
    </g>
</svg>