<?xml version="1.0" encoding="UTF-8"?>
<svg width="48px" height="47px" viewBox="0 0 48 47" version="1.1" xmlns="http://www.w3.org/2000/svg" xmlns:xlink="http://www.w3.org/1999/xlink">
    <title> aoriginality</title>
    <g id="Page-1" stroke="none" stroke-width="1" fill="none" fill-rule="evenodd">
        <g id="-aoriginality" fill="#FFFFFF" fill-rule="nonzero">
            <path d="M14.84544,0 L33.13152,0 C33.32352,0.03264 33.53568,0.06048 33.67872,0.20928 C33.96096,0.47328 33.95808,0.88992 33.97824,1.24608 C34.02624,2.82048 34.71936,4.34496 35.80512,5.47488 C36.90432,6.62688 38.38368,7.39008 39.94176,7.6896 C40.22208,7.75008 40.54176,7.79712 40.73088,8.03904 C40.9584,8.31072 40.91616,8.68992 40.92576,9.02016 C40.94496,12.12864 40.61568,15.24576 39.85152,18.26112 C38.66112,23.064 36.28224,27.56832 32.96064,31.23744 C32.73216,31.48608 32.3664,31.6416 32.03808,31.49856 C31.49376,31.31328 31.32576,30.52224 31.75104,30.13056 C33.98496,27.6192 35.832,24.74976 37.06464,21.61728 C38.62752,17.6928 39.29856,13.44864 39.28512,9.2352 C37.45152,8.79744 35.71968,7.848 34.45728,6.43488 C33.25824,5.1216 32.49888,3.4128 32.34432,1.63872 C26.784,1.64064 21.22464,1.6368 15.66432,1.63872 C15.528,3.18432 14.93664,4.68288 13.98912,5.91168 C12.7008,7.60128 10.78272,8.75808 8.72352,9.23904 C8.68992,12.94752 9.08736,16.68288 10.16832,20.23968 C11.23584,23.84064 13.05312,27.2304 15.53856,30.05376 C15.83424,30.336 15.96192,30.81888 15.72192,31.176 C15.46752,31.59648 14.82048,31.66848 14.47488,31.32288 C11.66496,28.20096 9.65856,24.3936 8.50464,20.36352 C7.39776,16.53216 6.9984,12.52032 7.09536,8.54112 C7.10496,8.27328 7.23936,8.0064 7.47552,7.86912 C7.68672,7.752 7.93248,7.7232 8.16384,7.66848 C9.83904,7.3344 11.41536,6.44736 12.50976,5.12928 C13.42464,4.04736 13.98816,2.66112 14.0352,1.24128 C14.05728,0.88896 14.04768,0.4752 14.32896,0.21504 C14.4624,0.072 14.66112,0.03264 14.84544,0 Z" id="Path"></path>
            <path d="M28.94304,14.06208 C29.30208,13.6752 29.93376,13.5792 30.38688,13.8528 C31.02432,14.19552 31.14144,15.1536 30.63744,15.66048 C28.02528,18.4224 25.40256,21.17568 22.7856,23.93376 C22.51872,24.21504 22.1952,24.4992 21.78912,24.51936 C21.34944,24.55104 20.95392,24.27936 20.68416,23.95392 C19.71744,22.80576 18.75552,21.65376 17.79072,20.50464 C17.46144,20.14752 17.38848,19.58496 17.62368,19.15968 C17.9616,18.48384 18.98784,18.34848 19.48416,18.92064 C20.256,19.80672 21.00864,20.71104 21.76608,21.61056 C24.16128,19.09632 26.54784,16.57536 28.94304,14.06208 Z" id="Path"></path>
            <path d="M0,32.2944 C0.07488,31.89504 0.45312,31.59264 0.85728,31.5964438 C3.80256,31.60128 6.7488,31.5984 9.69504,31.59936 C9.97152,31.60128 10.2864,31.63296 10.48032,31.85664 C10.68768,32.0592 10.6896,32.36928 10.69824,32.63904 C10.70208,33.5232 10.70208,34.40832 10.70496,35.29248 C19.57248,35.29344 28.43904,35.29344 37.30656,35.29344 C37.31136,34.2816 37.27872,33.26976 37.33056,32.25984 C37.36224,31.83936 37.80864,31.58304 38.1984,31.60128 C41.18016,31.60416 44.16096,31.60224 47.14272,31.60416 C47.55552,31.56864 47.90016,31.90176 48,32.28192 L48,32.51424 C47.92032,32.71776 47.8128,32.90976 47.67648,33.08064 C46.4928,34.54176 45.31584,36.00864 44.13408,37.47168 C45.30336,38.92608 46.47648,40.3776 47.64576,41.83104 C47.79264,42.01248 47.9136,42.21408 48,42.432 L48,42.6672 C47.91264,43.05984 47.56992,43.42464 47.14272,43.39104 C44.42016,43.39584 41.69856,43.39296 38.976,43.39296 C38.96352,44.03616 39.00384,44.68128 38.9568,45.32352 C38.92992,45.74304 38.52,46.05888 38.1168,46.06272 C28.7088,46.05984 19.3008,46.06464 9.89376,46.0608 C9.5088,46.0512 9.14112,45.71808 9.14496,45.32256 C9.10176,44.68032 9.14112,44.03616 9.12864,43.39296 C6.37344,43.39296 3.61728,43.39584 0.86208,43.39104 C0.43776,43.42752 0.09984,43.07136 0,42.6864 L0,42.4464 C0.08352,42.2208 0.2064,42.01248 0.35808,41.82624 C1.53312,40.38144 2.69568,38.92608 3.86688,37.47744 C2.69856,36.02976 1.53504,34.57728 0.36,33.1344 C0.21312,32.952 0.0912,32.75136 0,32.53632 L0,32.2944 M2.53632,33.24192 C3.53856,34.48512 4.5456,35.72544 5.54688,36.97056 C5.7936,37.25472 5.79552,37.71168 5.55072,37.99776 C4.54752,39.25248 3.53664,40.50144 2.53248,41.7552 C4.71456,41.7552 6.89664,41.75712 9.07872,41.75424 C9.06816,38.91648 9.06048,36.07872 9.05088,33.24096 C6.87936,33.24096 4.70784,33.24192 2.53632,33.24192 M38.95104,33.24576 C38.96064,36.08256 38.96928,38.9184 38.97792,41.7552 C41.14176,41.75424 43.3056,41.75808 45.46944,41.75616 C44.46048,40.50048 43.44576,39.2496 42.43872,37.99296 C42.19872,37.70784 42.20544,37.25856 42.44544,36.97632 C43.44864,35.72928 44.46144,34.48992 45.46656,33.24384 C43.29504,33.24384 41.12352,33.24384 38.95104,33.24576 M10.77024,36.9312 C10.77024,39.42624 10.76928,41.92224 10.77024,44.41728 C19.62528,44.41632 28.48032,44.42016 37.33536,44.4192 C37.32768,41.9232 37.32,39.4272 37.30944,36.93024 C28.46304,36.93216 19.61664,36.93024 10.77024,36.9312 Z" id="Shape"></path>
        </g>
    </g>
</svg>