<?xml version="1.0" encoding="utf-8"?>
<svg width="51px" height="50px" viewBox="0 0 51 50" version="1.1" xmlns:xlink="http://www.w3.org/1999/xlink" xmlns="http://www.w3.org/2000/svg">
  <g id="Group-33">
    <path d="M13.5921 0L14.3197 0C15.9947 0.106398 17.618 0.856247 18.7641 2.08438C19.9314 3.31251 20.6012 4.9946 20.6083 6.68785C20.6124 8.18957 20.6093 9.6913 20.6124 11.193C21.731 11.2021 22.8508 11.1809 23.9694 11.2021C24.9017 11.2265 25.7417 11.9895 25.8461 12.9187C26.5281 17.8961 27.2181 22.8714 27.8899 27.8498C28.1362 29.7467 26.9182 31.6903 25.1266 32.3368C24.4437 32.5992 23.7019 32.6053 22.9815 32.5951C16.7993 32.5941 10.6181 32.5951 4.43587 32.5941C3.85626 32.5982 3.26854 32.5272 2.72844 32.3084C1.33818 31.7703 0.271167 30.4652 0.0502657 28.9878C-0.0784247 28.2683 0.0695186 27.5428 0.16477 26.8294C0.798089 22.1935 1.43445 17.5576 2.07182 12.9217C2.17315 11.9905 3.01521 11.2254 3.94948 11.2021C5.06818 11.1819 6.18788 11.2021 7.30759 11.193C7.31165 9.65482 7.30253 8.1156 7.31165 6.5774C7.33495 4.70277 8.20539 2.86767 9.61794 1.63954C10.7123 0.669798 12.135 0.0982911 13.5921 0M10.6637 3.08857C9.67063 4.0046 9.09 5.34217 9.08392 6.6919C9.07683 8.19261 9.0819 9.69332 9.0819 11.194C12.3336 11.19 15.5843 11.1991 18.836 11.192C18.836 9.68927 18.8411 8.18755 18.833 6.68481C18.8239 5.60259 18.453 4.52646 17.7842 3.67325C16.9725 2.60522 15.7008 1.89692 14.3602 1.79356C13.0176 1.67196 11.6395 2.16038 10.6637 3.08857M3.8745 13.0241C3.81978 13.1386 3.81066 13.2673 3.78938 13.3909C3.28982 17.0956 2.77202 20.7982 2.26637 24.5018C10.0618 24.4998 17.8561 24.5059 25.6505 24.4998C25.1418 20.7739 24.623 17.0489 24.1184 13.323C24.1062 13.2166 24.0809 13.1153 24.0424 13.017C23.9005 12.9471 23.7344 12.9785 23.5824 12.9673C22.5924 12.9734 21.6013 12.9694 20.6103 12.9704C20.6042 13.6148 20.6184 14.2603 20.6063 14.9048C20.6134 15.3344 20.2658 15.7286 19.8402 15.7772C19.371 15.8532 18.8867 15.4803 18.8492 15.0061C18.8188 14.3292 18.8462 13.6503 18.837 12.9734C15.5853 12.9734 12.3336 12.9633 9.0819 12.9754C9.07582 13.6179 9.09 14.2593 9.07683 14.9017C9.09 15.378 8.65833 15.8026 8.18208 15.7853C7.71596 15.7894 7.29543 15.3689 7.30962 14.8997C7.29847 14.2573 7.31063 13.6138 7.30759 12.9704C6.31759 12.9694 5.32758 12.9734 4.33758 12.9673C4.18457 12.9825 4.01028 12.9379 3.8745 13.0241M2.24935 24.5251C2.1845 25.2233 1.7962 27.6654 1.77087 28.3666C1.77087 29.6626 2.91793 30.8533 4.23118 30.8178C10.7164 30.8188 17.2015 30.8188 23.6857 30.8178C24.9969 30.8522 26.1501 29.6657 26.1471 28.3696C26.1197 27.6674 25.7537 25.2233 25.6899 24.5251C17.7283 24.5109 10.2119 24.512 2.24935 24.5251Z" transform="translate(11.100305 4.5474735E-13)" id="Shape" fill="#FFFFFF" stroke="none" />
    <path d="M2.52629 2.05965C2.94884 0.877115 4.13846 0.0158011 5.39902 0.00972123C6.68491 0.000601435 7.9708 0.0127612 9.25669 0.00465467C9.62858 -0.0257446 10.042 0.0897727 10.2305 0.439365C10.5699 0.959193 10.1768 1.74147 9.55359 1.76781C8.16941 1.80125 6.7832 1.7516 5.39902 1.78605C4.70491 1.80328 4.09692 2.43052 4.11009 3.12768C4.103 12.2495 4.10908 21.3713 4.10705 30.4931C18.3339 30.4941 32.5608 30.4952 46.7867 30.4931C46.7887 21.6074 46.7856 12.7217 46.7887 3.83598C46.7796 3.35263 46.8556 2.81659 46.5617 2.39708C46.3003 1.98365 45.8098 1.76579 45.3295 1.77896C43.7731 1.77085 42.2176 1.78301 40.6612 1.77389C40.2224 1.78909 39.8131 1.43241 39.7725 0.994659C39.6955 0.48699 40.1414 -0.010545 40.6541 0.0107345C42.1437 -0.000411875 43.6343 0.0127612 45.1238 0.00465467C45.5656 0.00161474 46.0176 0.0208676 46.4371 0.173877C47.5243 0.537656 48.3674 1.54286 48.5245 2.68081C48.5822 3.1297 48.5559 3.58468 48.561 4.0356C48.561 12.8544 48.56 21.6743 48.562 30.4931C49.1274 30.5073 49.6959 30.4678 50.2613 30.5104C50.6413 30.5468 50.924 30.8691 51 31.2288L51 33.5868C50.9291 35.05 50.2471 36.4747 49.1234 37.4211C48.2286 38.1933 47.0704 38.63 45.8939 38.6949L5.13455 38.6949C3.08564 38.6249 1.14515 37.2803 0.397324 35.3651C-0.14277 34.1137 0.0335458 32.7275 0.0082131 31.4041C-0.0231995 30.9734 0.306126 30.556 0.739823 30.5114C1.26978 30.4668 1.80279 30.5073 2.33376 30.4911C2.33275 21.5719 2.33376 12.6518 2.33275 3.73161C2.32869 3.17024 2.31653 2.59062 2.52629 2.05965M1.77239 32.2755C1.79975 33.0001 1.70753 33.7479 1.94668 34.4481C2.3905 35.8748 3.80306 36.9358 5.30478 36.9175C18.5771 36.9195 31.8495 36.9175 45.1208 36.9195C45.7693 36.9358 46.4371 36.9114 47.04 36.6439C48.0239 36.2416 48.7981 35.3682 49.0848 34.3457C49.2855 33.6699 49.2145 32.9575 49.2257 32.2644C33.4079 32.2715 17.5891 32.2482 1.77239 32.2755Z" transform="translate(0 11.000901)" id="Shape" fill="#FFFFFF" stroke="none" />
  </g>
</svg>