<?xml version="1.0" encoding="UTF-8"?>
<svg width="34px" height="49px" viewBox="0 0 34 49" version="1.1" xmlns="http://www.w3.org/2000/svg" xmlns:xlink="http://www.w3.org/1999/xlink">
    <title>delivary to home</title>
    <g id="Page-1" stroke="none" stroke-width="1" fill="none" fill-rule="evenodd">
        <g id="delivary-to-home" transform="translate(0.000000, 0.000000)" fill="#FFFFFF" fill-rule="nonzero">
            <path d="M16.2597783,0 L17.0669531,0 C19.3252746,0.07412136 21.580196,0.560330281 23.6317936,1.51574781 C27.0570164,3.07841648 29.9178289,5.8372271 31.60834,9.20056881 C33.0411262,12.0287407 33.6456573,15.2724002 33.3090512,18.4262981 C33.027526,21.1082673 32.0952289,23.7235953 30.5910413,25.9628764 C29.4064596,27.7526692 27.8723514,29.3105778 26.0981989,30.51896 C25.8241538,30.6998433 25.5446687,30.8718864 25.2753838,31.0595699 C25.06866,31.1948924 24.959858,31.4240566 24.8258955,31.6233002 C22.3717305,35.42389 19.9182455,39.2265197 17.4552403,43.0216694 C17.1403945,43.5561592 16.2475381,43.5649993 15.9408525,43.0182693 C13.4207262,39.1238378 10.9046801,35.2273664 8.38591387,31.3322549 C8.23223105,31.0718101 7.94662581,30.9466878 7.70726141,30.7814448 C5.24969632,29.2255762 3.23617938,26.9930953 1.89383475,24.417208 C0.713333088,22.1731668 0.0761613974,19.6550806 0,17.1233942 L0,16.461062 C0.0380806987,14.499226 0.404607424,12.5414701 1.11658049,10.7122365 C2.35556322,7.48149727 4.63360502,4.66420558 7.52229802,2.76221068 C10.0988653,1.04313914 13.1684416,0.101321859 16.2597783,0 M16.3413798,1.65787042 C12.7937547,1.7279117 9.2978106,3.12533734 6.66412227,5.50062093 C5.56522211,6.50159929 4.59076423,7.64538028 3.8257502,8.92244371 C2.35488321,11.335808 1.5966693,14.1741801 1.65447036,16.9989519 C1.70207123,19.5721191 2.42628452,22.128966 3.73598855,24.3451267 C4.96069102,26.4252849 6.6872427,28.2116776 8.73748032,29.4887411 C9.05300611,29.6832246 9.40933264,29.8505077 9.60653626,30.1823538 C11.9219787,33.7619395 14.2360612,37.3428852 16.5487836,40.9238309 C16.6045447,40.9741518 16.625625,41.1135544 16.7249069,41.0802337 C16.8194286,41.0122325 16.8595493,40.8939103 16.9275506,40.8027887 C19.2239527,37.2517635 21.5203549,33.6993783 23.818117,30.1497132 C24.0030804,29.8471076 24.3335665,29.6975049 24.6218918,29.5152615 C26.5021263,28.3490402 28.1171559,26.759851 29.320098,24.9034169 C30.8637263,22.5226932 31.7246221,19.7013215 31.7463825,16.8622694 C31.7960234,13.568969 30.6984833,10.2804286 28.7148869,7.65490045 C27.3752623,5.90386832 25.6745511,4.41940109 23.7181552,3.39326226 C21.4639138,2.1910002 18.8941467,1.59734931 16.3413798,1.65787042 Z" id="Shape"></path>
            <path d="M15.7477289,6.71852327 C17.7857263,6.52879979 19.8842448,6.96604781 21.6583974,7.99354667 C23.6120732,9.08972678 25.1584216,10.8774796 25.999597,12.9508376 C26.7754913,14.8521525 26.9346142,16.9935118 26.4667656,18.9913885 C25.8989552,21.4822742 24.3172462,23.7154351 22.1786069,25.1074207 C20.6526589,26.1253994 18.8336256,26.6857296 17.002352,26.7394506 C15.0615964,26.8033718 13.1072405,26.2824822 11.4568502,25.2590635 C9.32093102,23.9588796 7.71474155,21.8256805 7.04628929,19.4170763 C6.49615919,17.5123613 6.55192022,15.4410433 7.17685168,13.5608088 C7.85686416,11.4915308 9.23524945,9.6629773 11.0332024,8.43419475 C12.426548,7.47809721 14.064018,6.87696618 15.7477289,6.71852327 M15.6817677,8.62527826 C14.7331503,8.73884034 13.8083334,9.03464577 12.9583178,9.46917374 C11.175325,10.4014708 9.74389878,12.0029002 9.05164608,13.896055 C8.40019413,15.6572873 8.38931393,17.6449638 9.01288537,19.4157162 C9.34201141,20.3242129 9.8214202,21.1810286 10.4470317,21.9188422 C11.7655759,23.5161915 13.7110916,24.5858511 15.7735694,24.8082152 C17.7374454,25.0380594 19.7890431,24.5294101 21.3897925,23.3625087 C23.3720288,21.9834434 24.6796928,19.6843212 24.8272555,17.2709569 C24.9278974,15.8789713 24.6531723,14.4638654 24.0513613,13.2058423 C23.3325881,11.6894145 22.128286,10.4137111 20.6669392,9.59089597 C19.1675117,8.74632048 17.3892791,8.39747408 15.6817677,8.62527826 Z" id="Shape"></path>
            <path d="M8.81228169,37.7284522 C9.05436613,37.6692912 9.32841116,37.6454907 9.54805519,37.7876133 C9.95334262,38.0099774 10.0886651,38.6049883 9.80441989,38.9742351 C9.63441677,39.2278798 9.32229105,39.3074412 9.04416594,39.3781625 C7.94934586,39.6549276 6.86540597,40.001734 5.86034753,40.5219435 C5.21297565,40.8660298 4.56356373,41.2713172 4.13175581,41.8778884 C3.90055157,42.181854 3.81146993,42.6095818 3.97263289,42.9659083 C4.20519716,43.4704776 4.64720527,43.8342843 5.09737353,44.1396099 C6.08135158,44.7876618 7.19385199,45.2126696 8.31791262,45.5472357 C11.3086075,46.4026914 14.440745,46.6610961 17.5409218,46.6080552 C19.5850393,46.5516141 21.6318769,46.3598506 23.6317936,45.9212426 C24.9510178,45.615917 26.267522,45.2405501 27.4772642,44.6210587 C28.0960755,44.2960127 28.7135268,43.928126 29.1684552,43.3868361 C29.3955794,43.1005508 29.5757827,42.727904 29.4812609,42.3545771 C29.3697389,41.857488 28.9760117,41.4950414 28.5958847,41.1863157 C27.2746204,40.1934975 25.6643509,39.7113686 24.087402,39.296561 C23.6134333,39.2047593 23.3121877,38.640349 23.5039513,38.1969808 C23.6345136,37.8365742 24.0459212,37.6162502 24.419248,37.6924116 C25.4168263,37.9290559 26.4035245,38.2241813 27.3507818,38.6192686 C28.5333235,39.1190778 29.7179053,39.7637296 30.5175999,40.7973486 C31.0786102,41.4936813 31.3186546,42.4647391 31.0500497,43.329035 C30.790965,44.1770106 30.1599134,44.852263 29.4547404,45.3629523 C28.4204415,46.1028059 27.2310996,46.5951349 26.0261175,46.982742 C23.1503448,47.8681183 20.1331294,48.2060845 17.1335944,48.2679656 C15.3118409,48.286326 13.4894075,48.1618837 11.6846544,47.9191192 C10.0641847,47.688595 8.4532351,47.3553889 6.90280665,46.8236191 C5.78214609,46.433292 4.68664599,45.9287227 3.7387086,45.2065495 C2.98185471,44.6081385 2.32496266,43.766283 2.24608121,42.7741448 C2.15971963,41.8493279 2.64116846,40.9721118 3.2810602,40.3383401 C4.06511459,39.5746861 5.04569258,39.0456364 6.04531092,38.6192686 C6.94156736,38.2486618 7.87250445,37.9657766 8.81228169,37.7284522 Z" id="Path"></path>
        </g>
    </g>
</svg>