<?xml version="1.0" encoding="UTF-8"?>
<svg width="190px" height="32px" viewBox="0 0 190 32" version="1.1" xmlns="http://www.w3.org/2000/svg" xmlns:xlink="http://www.w3.org/1999/xlink">
    <title>Group 4</title>
    <g id="Page-1" stroke="none" stroke-width="1" fill="none" fill-rule="evenodd">
        <g id="customer-edite-copy" transform="translate(-1158.000000, -36.000000)" fill-rule="nonzero">
            <g id="Group-4" transform="translate(1158.000000, 36.000000)">
                <path d="M75.2091533,5.12449991 C74.802745,5.12519416 74.4127054,4.96441674 74.1248392,4.67753472 C73.8369731,4.3906527 73.6748608,4.00116605 73.6741655,3.5947577 L73.6741655,1.56909862 C73.6756099,0.724845584 74.3596525,0.0408030663 75.2039055,0.039358661 L77.8278162,0.039358661 C78.6700191,0.0436838871 79.3508773,0.726885812 79.3523084,1.56909862 L79.3523084,3.5947577 C79.3508773,4.43697051 78.6700191,5.12017243 77.8278162,5.12449991 L75.2091533,5.12449991 Z M82.1651407,5.12449766 L84.8021709,5.12449766 C85.6443739,5.12017243 86.325232,4.43697051 86.3266631,3.5947577 L86.3266631,1.56909862 C86.325232,0.726885812 85.6443739,0.0436838871 84.8021709,0.039358661 L82.1651407,0.039358661 C81.3198631,0.039358661 80.6342242,0.723822304 80.6327768,1.56909862 L80.6327768,3.5947577 C80.6342242,4.44003402 81.3198631,5.12449766 82.1651407,5.12449766 Z M131.098452,25.2026626 L128.461422,25.2026626 C127.61819,25.2041015 126.934568,25.8865505 126.931679,26.7297786 L126.931679,28.7580616 C126.930985,29.16447 127.091763,29.5545095 127.378645,29.8423757 C127.665527,30.1302419 128.055013,30.2923541 128.461422,30.2930494 L131.098452,30.2930494 C131.941254,30.2901581 132.622946,29.6061163 132.622946,28.7633094 L132.622946,26.7350264 C132.624396,25.8911958 131.942279,25.2055561 131.098452,25.2026626 Z M138.054439,25.2026626 L135.417409,25.2026626 C134.573153,25.2026626 133.887936,25.8855276 133.885045,26.7297786 L133.885045,28.7580616 C133.886492,29.6033379 134.572131,30.2878016 135.417409,30.2878016 L138.054439,30.2878016 C138.896642,30.2834764 139.5775,29.6002744 139.578931,28.7580616 L139.578931,26.7297786 C139.576062,25.88859 138.895622,25.2069789 138.054439,25.2026626 L138.054439,25.2026626 Z M150.594109,0.039358661 L147.668448,0.039358661 L147.668448,22.7125713 L154.20461,22.7125713 L154.20461,3.65248374 C154.198853,1.66042256 152.586165,0.0465627592 150.594109,0.039358661 Z M20.4822472,0.039358661 L17.5618345,0.039358661 L17.5618345,12.3428761 L17.5618345,12.3428761 L17.5618345,23.5076162 C17.5575069,24.8371591 16.4800074,25.9134862 15.1504606,25.9163663 L8.95015951,25.9163663 C7.62163728,25.9120459 6.54572989,24.8361385 6.54140945,23.5076162 L6.54140945,7.22362624 L7.10542736e-14,7.22362624 L7.10542736e-14,23.339686 C0.0115189327,27.1741178 3.1163123,30.2800832 6.95073953,30.2930494 L17.1498805,30.2930494 C20.9812435,30.2786619 24.0836086,27.1762967 24.0979971,23.3449338 L24.0979971,3.66560329 C24.0994485,1.66637874 22.4814675,0.0437011278 20.4822472,0.039358661 L20.4822472,0.039358661 Z M53.1709271,22.7125713 L49.5709215,22.7125713 L46.9102761,20.1070279 L46.9102761,23.339686 C46.8973179,27.1745423 43.7917689,30.2800913 39.9569126,30.2930494 L31.9329936,30.2930494 L27.3017912,25.9216141 L37.9548687,25.9216141 C39.2844155,25.918734 40.361915,24.842407 40.3662427,23.5128641 L40.3662427,22.7256908 L30.9201641,22.7256908 C28.9240125,22.7228047 27.3061254,21.1060908 27.3017912,19.1099419 L27.3017912,13.7624118 C27.3017912,10.1446644 30.2307083,7.20987045 33.8484484,7.20263496 L43.2945271,7.20263496 C45.2956201,7.2098675 46.913183,8.83564736 46.9102761,10.8367513 L46.9102761,18.3437599 L57.639447,18.3437599 L53.1709271,22.7125713 Z M40.3662427,13.9408377 C40.361915,12.6112948 39.2844155,11.5349678 37.9548687,11.5320877 L36.1522421,11.5320877 C34.8219193,11.5320877 33.8536963,12.6131389 33.8536963,13.9408377 L33.8536963,15.9350099 C33.8565687,17.262088 34.9301298,18.3379931 36.2571985,18.3437599 L40.3793623,18.3437599 L40.3662427,13.9408377 Z M58.5499441,22.7125713 L63.0105923,18.3437599 L59.8041734,18.3437599 L55.3435252,22.7125713 L58.5499441,22.7125713 Z M140.84628,7.20263496 L137.933739,7.20263496 L137.933739,15.9402577 C137.929412,17.2698006 136.851912,18.3461276 135.522365,18.3490077 L126.894947,18.3490077 L126.894947,10.8105122 C126.884878,8.82007623 125.27227,7.20981087 123.281822,7.20263496 L120.361409,7.20263496 L120.361409,15.9402577 C120.355642,17.2702247 119.277388,18.3461353 117.947411,18.3490077 L116.404552,18.3490077 L116.404552,10.8105122 C116.394473,8.81905661 114.780276,7.20837351 112.788803,7.20263496 L109.865766,7.20263496 L109.865766,15.9402577 C109.861439,17.2698006 108.783939,18.3461276 107.454392,18.3490077 L105.906285,18.3490077 L105.906285,10.8105122 C105.897652,8.82050044 104.285801,7.20982127 102.295784,7.20263496 L99.3701233,7.20263496 L99.3701233,15.9402577 C99.3657957,17.2698006 98.2882962,18.3461276 96.9587494,18.3490077 L92.8706964,18.3490077 L92.8706964,10.8105122 C92.8606176,8.81905661 91.2464203,7.20837351 89.2549475,7.20263496 L86.3319109,7.20263496 L86.3319109,15.9402577 C86.3275832,17.2698006 85.2500837,18.3461276 83.9205369,18.3490077 L75.2957424,18.3490077 L75.2957424,13.6836945 C75.2827736,10.1076429 72.3854959,7.21270927 68.809435,7.20263496 L63.7164243,7.20263496 L71.9738714,0.039358661 L63.3543246,0.039358661 L50.0406016,11.5320877 L66.3508307,11.5320877 C67.6783281,11.5378462 68.7526452,12.6133348 68.7569568,13.9408377 L68.7569568,15.9350099 L68.7569568,15.9350099 C68.7511899,17.2649769 67.6729353,18.3408874 66.3429589,18.3437599 L65.1831904,18.3437599 L60.7225422,22.7125713 L71.6878651,22.7125713 C73.3666557,22.7057384 74.8212686,21.5474758 75.2039055,19.9128585 L78.0665921,22.7125713 L89.2601953,22.7125713 C90.8812915,22.7034404 92.2999963,21.6209419 92.736877,20.0597975 L95.4368811,22.7046996 L123.281822,22.7046996 C124.928811,22.700292 126.365665,21.5857333 126.779495,19.9915759 L129.563464,22.7125713 L137.876013,22.7125713 C141.5177,22.6981626 144.465081,19.7472658 144.475149,16.1055641 L144.475149,10.8105122 C144.466474,8.81334334 142.843466,7.19972374 140.84628,7.20263496 L140.84628,7.20263496 Z" id="Shape" fill="#03326D"></path>
                <g id="Group-2" transform="translate(158.604908, 0.000000)">
                    <polygon id="Path" fill="#FFFFFF" points="4.80438055 26.5775918 0.28863018 15.6936101 4.80438055 4.80962837 15.696234 0.28863018 26.5907114 4.80962837 31.1064617 15.6936101 26.5907114 26.5775918 15.696234 31.1012139"></polygon>
                    <path d="M15.696234,0.577260361 L26.3886702,5.0116695 L30.8178315,15.6909862 L26.3886702,26.3729268 L15.696234,30.8178315 L5.00904559,26.3781746 L0.577260361,15.696234 L5.00904559,5.01691732 L15.696234,0.577260361 Z M15.696234,5.32907052e-15 L15.491569,0.0839651434 L4.80700446,4.51837428 L4.60233942,4.60496333 L4.51837428,4.80700446 L0.0839651434,15.488945 L1.27897692e-13,15.6909862 L0.0839651434,15.8956512 L4.51575037,26.5775918 L4.59971551,26.7796329 L4.80438055,26.8635981 L15.491569,31.3058789 L15.696234,31.3898441 L15.900899,31.3058789 L26.5854635,26.866222 L26.7875047,26.7796329 L26.8740937,26.5775918 L31.3085029,15.8956512 L31.3950919,15.6909862 L31.3085029,15.488945 L26.8819654,4.80700446 L26.7953764,4.60496333 L26.5933353,4.51837428 L15.900899,0.0839651434 L15.696234,5.32907052e-15 Z" id="Shape" fill="#26B8CE"></path>
                    <polygon id="Path" fill="#03326D" points="15.696234 0.577260361 11.256577 5.0116695 15.696234 15.6936101 20.135891 5.0116695"></polygon>
                    <polygon id="Path" fill="#7DCBDB" points="15.696234 15.6936101 20.135891 5.0116695 26.3886702 5.0116695 26.3886702 11.2644488"></polygon>
                    <polygon id="Path" fill="#7DCBDB" points="11.256577 5.0116695 5.00904559 5.0116695 5.00904559 11.2644488 15.696234 15.6936101"></polygon>
                    <polygon id="Path" fill="#03326D" points="15.696234 30.8125837 11.256577 26.3729268 15.696234 15.6936101 20.135891 26.3729268"></polygon>
                    <polygon id="Path" fill="#26B8CE" points="15.696234 15.6936101 20.135891 26.3729268 26.3886702 26.3729268 26.3886702 20.1175236"></polygon>
                    <polygon id="Path" fill="#26B8CE" points="11.256577 26.3729268 5.00904559 26.3729268 5.00904559 20.1175236 15.696234 15.6936101"></polygon>
                    <polygon id="Path" fill="#03326D" points="15.696234 15.6936101 26.3886702 11.2644488 30.8178315 15.6936101 26.3886702 20.1175236"></polygon>
                    <polygon id="Path" fill="#03326D" points="15.696234 15.6936101 5.00642168 20.1175236 0.577260361 15.6936101 5.00642168 11.2644488"></polygon>
                    <polygon id="Path" fill="#26427B" points="15.696234 15.6936101 0.577260361 15.6936101 5.00642168 11.2644488"></polygon>
                    <polygon id="Path" fill="#26427B" points="15.696234 15.6936101 15.696234 0.577260361 20.135891 5.0116695"></polygon>
                    <polygon id="Path" fill="#26427B" points="15.696234 15.6936101 30.8178315 15.6936101 26.3886702 20.1175236"></polygon>
                    <polygon id="Path" fill="#26427B" points="15.696234 15.6936101 15.696234 30.8125837 11.256577 26.3729268"></polygon>
                    <polygon id="Path" fill="#7DCBDB" points="15.696234 15.6936101 26.3886702 26.3729268 20.135891 26.3729268"></polygon>
                    <polygon id="Path" fill="#7DCBDB" points="15.696234 15.6936101 5.00904559 26.3729268 5.00642168 20.1175236"></polygon>
                    <polygon id="Path" fill="#26B8CE" points="5.00904559 5.0116695 15.696234 15.6936101 5.00642168 11.2644488"></polygon>
                    <polygon id="Path" fill="#26B8CE" points="15.696234 15.6936101 20.135891 5.0116695 26.3886702 5.0116695"></polygon>
                </g>
            </g>
        </g>
    </g>
</svg>