<?xml version="1.0" encoding="UTF-8"?>
<svg width="259px" height="51px" viewBox="0 0 259 51" version="1.1" xmlns="http://www.w3.org/2000/svg" xmlns:xlink="http://www.w3.org/1999/xlink">
    <title>Group 4 Copy 2</title>
    <g id="Page-1" stroke="none" stroke-width="1" fill="none" fill-rule="evenodd">
        <g id="Group-4-Copy-2" fill="#FFFFFF" fill-rule="nonzero">
            <path d="M126.320288,8.57225011 C125.63769,8.57342044 124.982585,8.30239074 124.499089,7.81878089 C124.015592,7.33517103 123.743311,6.67859597 123.742143,5.99349523 L123.742143,2.57875108 C123.744569,1.15555597 124.893478,0.0024348986 126.311474,0 L130.718559,0 C132.133112,0.00729122718 133.276672,1.15899528 133.279076,2.57875108 L133.279076,5.99349523 C133.276672,7.41325104 132.133112,8.56495509 130.718559,8.57225011 L126.320288,8.57225011 Z M138.003471,8.57224631 L142.432592,8.57224631 C143.847145,8.56495509 144.990705,7.41325104 144.993109,5.99349523 L144.993109,2.57875108 C144.990705,1.15899528 143.847145,0.00729122718 142.432592,0 L138.003471,0 C136.583754,0 135.432164,1.15383099 135.429733,2.57875108 L135.429733,5.99349523 C135.432164,7.41841533 136.583754,8.57224631 138.003471,8.57224631 Z M220.191206,42.4189072 L215.762085,42.4189072 C214.345804,42.4213329 213.197603,43.5717676 213.192751,44.993235 L213.192751,48.4124024 C213.191585,49.0975032 213.461624,49.7550103 213.943468,50.2402792 C214.425311,50.7255481 215.079487,50.9988279 215.762085,51 L220.191206,51 C221.606765,50.995126 222.751727,49.8420062 222.751727,48.4212489 L222.751727,45.0020815 C222.754162,43.5795984 221.608487,42.423785 220.191206,42.4189072 Z M231.87439,42.4189072 L227.445269,42.4189072 C226.027268,42.4189072 224.876387,43.5700432 224.871531,44.993235 L224.871531,48.4124024 C224.873962,49.8373225 226.025552,50.9911535 227.445269,50.9911535 L231.87439,50.9911535 C233.288942,50.9838623 234.432503,49.8321582 234.434906,48.4124024 L234.434906,44.993235 C234.430086,43.5752057 233.287228,42.4261834 231.87439,42.4189072 L231.87439,42.4189072 Z M252.935851,0 L248.02195,0 L248.02195,38.2212489 L259,38.2212489 L259,6.09080659 C258.990331,2.73269995 256.281682,0.0121442706 252.935851,0 Z M34.4017084,0 L29.4966224,0 L29.4966224,20.7405898 L29.4966224,20.7405898 L29.4966224,39.5614918 C29.4893537,41.8027617 27.6796,43.6171743 25.4465109,43.6220295 L15.0325682,43.6220295 C12.8012,43.6147463 10.9941204,41.8010411 10.9868638,39.5614918 L10.9868638,12.1108413 L0,12.1108413 L0,39.2784042 C0.0193470453,45.7422775 5.23411646,50.9781424 11.6743691,51 L28.80471,51 C35.2398159,50.9757463 40.4505069,45.7459506 40.4746737,39.2872507 L40.4746737,6.11292281 C40.4771114,2.74274054 37.7595722,0.00732029059 34.4017084,0 L34.4017084,0 Z M89.3051779,38.2212489 L83.2586568,38.2212489 L78.7898722,33.8289679 L78.7898722,39.2784042 C78.7681079,45.742993 73.5520694,50.9781559 67.111096,51 L53.6342289,51 L45.8557233,43.630876 L63.7484899,43.630876 C65.9815789,43.6260208 67.7913326,41.8116082 67.7986013,39.5703382 L67.7986013,38.2433651 L51.933094,38.2433651 C48.5803845,38.2384998 45.863003,35.5131329 45.8557233,32.1481353 L45.8557233,23.1335646 C45.8557233,17.034966 50.7750933,12.0876525 56.8514012,12.0754553 L72.7169086,12.0754553 C76.0779176,12.0876476 78.7947547,14.8282974 78.7898722,18.2016479 L78.7898722,30.8565481 L96.8104443,30.8565481 L89.3051779,38.2212489 Z M67.7986013,23.4343452 C67.7913326,21.1930753 65.9815789,19.3786626 63.7484899,19.3738075 L60.7208222,19.3738075 C58.4864299,19.3738075 56.8602154,21.1961839 56.8602154,23.4343452 L56.8602154,26.7960104 C56.8650399,29.0331254 58.6681788,30.8468268 60.8971056,30.8565481 L67.8206367,30.8565481 L67.7986013,23.4343452 Z M98.3397029,38.2212489 L105.831748,30.8565481 L100.44629,30.8565481 L92.9542446,38.2212489 L98.3397029,38.2212489 Z M236.563528,12.0754553 L231.671664,12.0754553 L231.671664,26.8048569 C231.664395,29.0461268 229.854641,30.8605394 227.621552,30.8653946 L213.131055,30.8653946 L213.131055,18.1574154 C213.114144,14.8020484 210.40563,12.0875521 207.062499,12.0754553 L202.157413,12.0754553 L202.157413,26.8048569 C202.147727,29.0468417 200.336705,30.8605523 198.102894,30.8653946 L195.511528,30.8653946 L195.511528,18.1574154 C195.4946,14.8003296 192.783416,12.0851291 189.438565,12.0754553 L184.529071,12.0754553 L184.529071,26.8048569 C184.521803,29.0461268 182.712049,30.8605394 180.47896,30.8653946 L177.87878,30.8653946 L177.87878,18.1574154 C177.86428,14.8027636 175.157037,12.0875696 171.81463,12.0754553 L166.90073,12.0754553 L166.90073,26.8048569 C166.893461,29.0461268 165.083708,30.8605394 162.850619,30.8653946 L155.98438,30.8653946 L155.98438,18.1574154 C155.967451,14.8003296 153.256267,12.0851291 149.911416,12.0754553 L145.001923,12.0754553 L145.001923,26.8048569 C144.994654,29.0461268 143.1849,30.8605394 140.951811,30.8653946 L126.465722,30.8653946 L126.465722,23.0008673 C126.44394,16.9725572 121.577711,12.0924381 115.571407,12.0754553 L107.017254,12.0754553 L120.886352,0 L106.409076,0 L84.0475251,19.3738075 L111.441968,19.3738075 C113.671615,19.3835148 115.476023,21.1965142 115.483265,23.4343452 L115.483265,26.7960104 L115.483265,26.7960104 C115.473579,29.0379953 113.662557,30.8517059 111.428746,30.8565481 L109.480815,30.8565481 L101.98877,38.2212489 L120.405979,38.2212489 C123.225654,38.2097305 125.668802,36.2571954 126.311474,33.5016479 L131.119604,38.2212489 L149.92023,38.2212489 C152.643002,38.2058565 155.025839,36.3810404 155.759618,33.7493495 L160.294509,38.2079792 L207.062499,38.2079792 C209.82876,38.2005492 212.24208,36.3216876 212.937144,33.6343452 L217.613061,38.2212489 L231.574708,38.2212489 C237.691237,38.1969595 242.641618,33.2225007 242.658527,27.0835212 L242.658527,18.1574154 C242.643957,14.7906985 239.917975,12.0705478 236.563528,12.0754553 L236.563528,12.0754553 Z" id="Shape"></path>
        </g>
    </g>
</svg>