<?xml version="1.0" encoding="UTF-8"?>
<svg width="41px" height="50px" viewBox="0 0 41 50" version="1.1" xmlns="http://www.w3.org/2000/svg" xmlns:xlink="http://www.w3.org/1999/xlink">
    <title>Combined Shape</title>
    <g id="Page-1" stroke="none" stroke-width="1" fill="none" fill-rule="evenodd">
        <g id="Contact-us" transform="translate(-392.000000, -523.000000)" fill="#D18D77" fill-rule="nonzero">
            <path d="M428.133817,530.320217 C430.623794,533.277931 432.242226,536.960156 432.73873,540.794743 C433.375874,545.529642 432.267797,550.469109 429.677667,554.482693 C428.452389,556.397322 426.902146,558.102056 425.117503,559.508462 C424.618868,559.905878 424.087204,560.258545 423.581111,560.645306 C420.61807,562.893425 418.092933,565.719021 416.197481,568.920725 C415.649836,569.858329 415.081946,570.784213 414.526842,571.71862 C414.291376,572.138411 413.966411,572.523042 413.532769,572.747853 C412.624998,573.256077 411.391197,573.022742 410.730612,572.220451 C410.552467,571.981362 410.39154,571.730511 410.236921,571.475397 L409.781075,570.704772 C409.704618,570.576704 409.62701,570.449446 409.546887,570.323935 C407.167718,566.198478 403.926592,562.572721 400.088809,559.752452 C397.211005,557.563999 394.921334,554.609482 393.550088,551.26181 C391.943376,547.401653 391.576859,543.042861 392.500611,538.966415 C393.338062,535.234113 395.245233,531.750063 397.948302,529.042732 C401.511197,525.437219 406.457057,523.225326 411.529706,523.038871 C417.791408,522.737346 424.122364,525.49795 428.133817,530.320217 Z M411.242032,534.466983 C408.130893,534.860137 405.320212,536.993186 404.104524,539.883775 C403.175443,542.026413 403.115778,544.531307 403.963883,546.709105 C404.580784,548.346715 405.687795,549.793608 407.10379,550.821776 C408.590105,551.902151 410.407778,552.523314 412.245695,552.56167 C414.324405,552.621336 416.41377,551.928788 418.046053,550.641713 C419.483356,549.524047 420.57119,547.964215 421.119901,546.227517 C421.803926,544.091272 421.654762,541.700383 420.703307,539.668553 C419.930849,537.970211 418.611811,536.530776 416.994445,535.602762 C415.269467,534.608689 413.216328,534.19316 411.242032,534.466983 Z" id="Combined-Shape"></path>
        </g>
    </g>
</svg>