<?xml version="1.0" encoding="UTF-8"?>
<svg width="50px" height="50px" viewBox="0 0 50 50" version="1.1" xmlns="http://www.w3.org/2000/svg" xmlns:xlink="http://www.w3.org/1999/xlink">
    <title>all logo-03</title>
    <g id="Page-1" stroke="none" stroke-width="1" fill="none" fill-rule="evenodd">
        <g id="Modular-landing" transform="translate(-694.000000, -3318.000000)" fill-rule="nonzero">
            <g id="all-logo-03" transform="translate(694.000000, 3318.000000)">
                <polygon id="Path" fill="#FFFFFF" points="7.32920925 42.6566843 0 24.9977585 7.32920925 7.3388326 25 0 42.6752734 7.3388326 50 24.9977585 42.6752734 42.6566843 25 50"></polygon>
                <path d="M25.0176118,0.919570574 L42.0526594,7.99894403 L49.0973934,25.0043999 L42.0526594,42.0098557 L25.0176118,49.0804294 L7.98696724,42.0098557 L0.942233181,25.0043999 L7.98696724,7.99894403 L25.0176118,0.919570574 Z M25.0176118,0 L24.6917929,0.136395635 L7.66114829,7.17617036 L7.33532934,7.312566 L7.19883762,7.63375572 L0.136491722,24.6788103 L0,25.0043999 L0.136491722,25.3299894 L7.18122578,42.3354453 L7.31771751,42.6610348 L7.64353646,42.7930306 L24.674181,49.8636044 L25,50 L25.325819,49.8680042 L42.3608665,42.7930306 L42.6866855,42.6610348 L42.8187742,42.3354453 L49.8635083,25.3299894 L50,25.0043999 L49.889926,24.6788103 L42.845192,7.67335445 L42.7131032,7.34776487 L42.3872843,7.21136924 L25.3522367,0.171594509 L25.0176118,0 Z" id="Shape" fill="#26B8CE"></path>
                <polygon id="Path" fill="#03326D" points="25.6097561 0 18.2926829 7.5176875 25.6097561 25.6097561 32.9268293 7.5176875"></polygon>
                <polygon id="Path" fill="#7DCBDB" points="25.6097561 24.3902439 32.7011454 7.31707317 42.6829268 7.31707317 42.6829268 17.3136024"></polygon>
                <polygon id="Path" fill="#7DCBDB" points="17.2970212 7.31707317 7.31707317 7.31707317 7.31707317 17.3154329 24.3902439 24.3902439"></polygon>
                <polygon id="Path" fill="#03326D" points="25.6097561 50 18.2926829 42.4790062 25.6097561 24.3902439 32.9268293 42.4790062"></polygon>
                <polygon id="Path" fill="#26B8CE" points="25.6097561 25.6097561 32.7011454 42.6829268 42.6829268 42.6829268 42.6829268 32.6863976"></polygon>
                <polygon id="Path" fill="#26B8CE" points="17.2970212 42.6829268 7.31707317 42.6829268 7.31707317 32.6863976 24.3902439 25.6097561"></polygon>
                <polygon id="Path" fill="#03326D" points="23.1707317 24.3902439 40.4159535 17.0731707 47.5609756 24.3902439 40.4159535 31.7073171"></polygon>
                <polygon id="Path" fill="#03326D" points="24.3902439 24.3902439 7.14502211 31.7073171 0 24.3902439 7.14502211 17.0731707"></polygon>
                <polygon id="Path" fill="#26427B" points="24.3902439 24.3902439 0 24.3902439 7.14502211 17.0731707"></polygon>
                <polygon id="Path" fill="#26427B" points="25.6097561 25.6097561 25.6097561 0 32.9268293 7.5176875"></polygon>
                <polygon id="Path" fill="#26427B" points="23.1707317 25.6097561 47.5609756 25.6097561 40.4159535 32.9268293"></polygon>
                <polygon id="Path" fill="#26427B" points="24.3902439 24.3902439 24.3902439 50 17.0731707 42.4790062"></polygon>
                <polygon id="Path" fill="#7DCBDB" points="25.6097561 25.6097561 42.6829268 42.6829268 32.7011454 42.6829268"></polygon>
                <polygon id="Path" fill="#7DCBDB" points="24.3902439 25.6097561 7.32148598 42.6829268 7.31707317 32.6863976"></polygon>
                <polygon id="Path" fill="#26B8CE" points="7.32148598 7.31707317 24.3902439 24.3902439 7.31707317 17.3154329"></polygon>
                <polygon id="Path" fill="#26B8CE" points="25.6097561 24.3902439 32.7011454 7.31707317 42.6829268 7.31707317"></polygon>
            </g>
        </g>
    </g>
</svg>