<?xml version="1.0" encoding="UTF-8"?>
<svg width="247px" height="41px" viewBox="0 0 247 41" version="1.1" xmlns="http://www.w3.org/2000/svg" xmlns:xlink="http://www.w3.org/1999/xlink">
    <title>all logo-03</title>
    <g id="Page-1" stroke="none" stroke-width="1" fill="none" fill-rule="evenodd">
        <g id="404" transform="translate(-95.000000, -25.000000)" fill-rule="nonzero">
            <g id="all-logo-03" transform="translate(95.000000, 25.000000)">
                <polygon id="Path" fill="#FFFFFF" points="6.00995159 34.9784811 0 20.4981619 6.00995159 6.01784273 20.5 0 34.9937242 6.01784273 41 20.4981619 34.9937242 34.9784811 20.5 41"></polygon>
                <path d="M20.5144417,0.75404787 L34.4831807,6.55913411 L40.2598626,20.5036079 L34.4831807,34.4480817 L20.5144417,40.2459521 L6.54931314,34.4480817 L0.772631208,20.5036079 L6.54931314,6.55913411 L20.5144417,0.75404787 Z M20.5144417,0 L20.2472702,0.111844421 L6.2821416,5.8844597 L6.01497006,5.99630412 L5.90304685,6.25967969 L0.111923212,20.2366244 L0,20.5036079 L0.111923212,20.7705913 L5.88860514,34.7150651 L6.00052836,34.9820486 L6.26769989,35.0902851 L20.2328285,40.8881556 L20.5,41 L20.7671715,40.8917635 L34.7359105,35.0902851 L35.0030821,34.9820486 L35.1113949,34.7150651 L40.8880768,20.7705913 L41,20.5036079 L40.9097393,20.2366244 L35.1330574,6.29215065 L35.0247446,6.02516719 L34.7575731,5.91332277 L20.7888341,0.140707497 L20.5144417,0 Z" id="Shape" fill="#26B8CE"></path>
                <polygon id="Path" fill="#03326D" points="21 0 15 6.16450375 21 21 27 6.16450375"></polygon>
                <polygon id="Path" fill="#7DCBDB" points="21 20 26.8149393 6 35 6 35 14.1971539"></polygon>
                <polygon id="Path" fill="#7DCBDB" points="14.1835574 6 6 6 6 14.1986549 20 20"></polygon>
                <polygon id="Path" fill="#03326D" points="21 41 15 34.8327851 21 20 27 34.8327851"></polygon>
                <polygon id="Path" fill="#26B8CE" points="21 21 26.8149393 35 35 35 35 26.8028461"></polygon>
                <polygon id="Path" fill="#26B8CE" points="14.1835574 35 6 35 6 26.8028461 20 21"></polygon>
                <polygon id="Path" fill="#03326D" points="19 20 33.1410819 14 39 20 33.1410819 26"></polygon>
                <polygon id="Path" fill="#03326D" points="20 20 5.85891813 26 0 20 5.85891813 14"></polygon>
                <polygon id="Path" fill="#26427B" points="20 20 0 20 5.85891813 14"></polygon>
                <polygon id="Path" fill="#26427B" points="21 21 21 0 27 6.16450375"></polygon>
                <polygon id="Path" fill="#26427B" points="19 21 39 21 33.1410819 27"></polygon>
                <polygon id="Path" fill="#26427B" points="20 20 20 41 14 34.8327851"></polygon>
                <polygon id="Path" fill="#7DCBDB" points="21 21 35 35 26.8149393 35"></polygon>
                <polygon id="Path" fill="#7DCBDB" points="20 21 6.00361851 35 6 26.8028461"></polygon>
                <polygon id="Path" fill="#26B8CE" points="6.00361851 6 20 20 6 14.1986549"></polygon>
                <polygon id="Path" fill="#26B8CE" points="21 20 26.8149393 6 35 6"></polygon>
                <path d="M190.072234,5.01855406 L178.539719,5.01855406 C174.431507,5.03481461 171.104516,8.44384858 171.086659,12.6554063 L171.086659,26.3631478 C171.104516,30.5747055 174.431507,33.9837395 178.539719,34 L190.072234,34 C194.177619,33.9796782 197.500226,30.5718249 197.518054,26.3631478 L197.518054,12.6554063 C197.500226,8.44672912 194.177619,5.03887586 190.072234,5.01855406 M190.510223,19.7579015 L190.510223,26.5301344 C190.504274,27.9908901 189.350632,29.1735552 187.925724,29.1796545 L180.686229,29.1796545 C179.2605,29.1755775 178.105706,27.9917319 178.101729,26.5301344 L178.101729,12.4735765 C178.105706,11.011979 179.2605,9.82813331 180.686229,9.8240563 L187.925724,9.8240563 C189.351453,9.82813331 190.506246,11.011979 190.510223,12.4735765 L190.510223,19.7579015 L190.510223,19.7579015 Z M218.62842,5.01855406 L207.085046,5.01855406 C202.976834,5.03481461 199.649844,8.44384858 199.631986,12.6554063 L199.631986,26.3631478 C199.659734,30.5674572 202.983849,33.9652697 207.085046,33.9814459 L218.610322,33.9814459 C222.715756,33.9713616 226.046446,30.5717822 226.074241,26.3631478 L226.074241,12.6554063 C226.056383,8.44384858 222.729393,5.03481461 218.621181,5.01855406 L218.62842,5.01855406 Z M219.06641,19.7579015 L219.06641,26.5301344 C219.06046,27.9908901 217.906818,29.1735552 216.48191,29.1796545 L209.256895,29.1796545 C207.831987,29.1735552 206.678345,27.9908901 206.672395,26.5301344 L206.672395,12.4735765 C206.676372,11.011979 207.831165,9.82813331 209.256895,9.8240563 L216.496389,9.8240563 C217.922118,9.82813331 219.076912,11.011979 219.080889,12.4735765 L219.080889,19.7579015 L219.06641,19.7579015 Z M247,29.1796545 L247,33.9814459 L235.97063,33.9814459 C231.869433,33.9652697 228.545318,30.5674572 228.51757,26.3631478 L228.51757,5.01855406 L235.53264,5.01855406 L235.53264,26.5412668 C235.53859,28.0020225 236.692232,29.1846877 238.11714,29.1907869 L247,29.1796545 Z M137.585897,5.01855406 L145.339396,5.01855406 L145.339396,9.84261036 L137.585897,9.84261036 L137.585897,33.8589891 L130.559968,33.8589891 L130.559968,9.8240563 L122.806469,9.8240563 L122.806469,5 L137.585897,5 L137.585897,5.01855406 Z M122.563946,24.400128 L122.563946,26.3631478 C122.546089,30.5747055 119.219098,33.9837395 115.110886,34 L101.316029,34 L100.8708,32.8570697 L99.4446197,29.1982086 L112.971615,29.1982086 C114.396523,29.1921093 115.550165,28.0094441 115.556115,26.5486884 L115.556115,24.2331414 C115.552138,22.7715439 114.397345,21.5876982 112.971615,21.5836212 L105.073327,21.5836212 C100.963701,21.5693934 97.6345178,18.1597683 97.6166473,13.946769 L97.6166473,12.6739603 C97.6345178,8.46096112 100.963701,5.05133596 105.073327,5.03710813 L120.142335,5.03710813 L120.142335,9.86116443 L107.219837,9.86116443 C105.793516,9.86523034 104.63768,11.048487 104.631718,12.5106846 L104.631718,14.1174664 C104.635695,15.5811133 105.792109,16.7666203 107.219837,16.7706974 L115.100027,16.7706974 C119.206248,16.7849109 122.533235,20.1906277 122.553087,24.400128 L122.563946,24.400128 Z M80.1151689,5.01855406 L68.8686139,33.8589891 L75.8836843,33.8589891 L78.5840158,26.9754319 L88.6939701,26.9754319 L91.3798226,33.8589891 L98.3948929,33.8589891 L87.1302392,5.01855406 L80.1151689,5.01855406 Z M80.4409462,22.1736404 L83.6227041,14.0098528 L86.804462,22.1736404 L80.4409462,22.1736404 Z M65.9149001,33.9814459 L52.4530598,33.9814459 C48.3518627,33.9652697 45.0277477,30.5674572 45,26.3631478 L45,12.6554063 C45.0178572,8.44384858 48.3448476,5.03481461 52.4530598,5.01855406 L67.5220679,5.01855406 L67.5220679,9.84261036 L54.5995699,9.84261036 C53.1738408,9.84668737 52.0190473,11.030533 52.0150703,12.4921305 L52.0150703,17.0861164 L67.5220679,17.0861164 L67.5220679,21.9101727 L52.0150703,21.9101727 L52.0150703,26.537556 C52.0210199,27.9983117 53.1746619,29.1809769 54.5995699,29.1870761 L67.8007885,29.1870761 L66.3709883,32.8459373 L65.9149001,33.9814459 Z M155.811325,29.1796545 L168.737443,29.1796545 L168.737443,33.9814459 L153.675674,33.9814459 C149.574477,33.9652697 146.250362,30.5674572 146.222614,26.3631478 L146.222614,25.9920665 L153.237685,22.5929623 L153.237685,26.5486884 C153.253493,28.0021933 154.404273,29.1736629 155.822184,29.1796545 L155.811325,29.1796545 Z M146.211755,19.8024312 L153.226826,16.4033269 L153.226826,19.371977 L146.211755,22.7710813 L146.211755,19.8024312 Z M168.737443,5.01855406 L168.737443,9.84261036 L155.822184,9.84261036 C154.396455,9.84668737 153.241662,11.030533 153.237685,12.4921305 L153.237685,13.2008957 L146.222614,16.6 L146.222614,12.6554063 C146.240472,8.44384858 149.567462,5.03481461 153.675674,5.01855406 L168.737443,5.01855406 Z" id="Shape" fill="#FFFFFF"></path>
            </g>
        </g>
    </g>
</svg>