<?xml version="1.0" encoding="UTF-8"?>
<svg width="55px" height="47px" viewBox="0 0 55 47" version="1.1" xmlns="http://www.w3.org/2000/svg" xmlns:xlink="http://www.w3.org/1999/xlink">
    <title>delivary to all</title>
    <g id="Page-1" stroke="none" stroke-width="1" fill="none" fill-rule="evenodd">
        <g id="delivary-to-all" fill="#FFFFFF" fill-rule="nonzero">
            <path d="M26.3747,0 L50.6022,0 C51.6934,0.0385 52.7791,0.4477 53.5711,1.2111 C54.3906,1.9745 54.8955,3.0481 55,4.1602 L55,39.3415 C54.8911,39.831 54.4115,40.2347 53.8956,40.1192 C53.3896,40.0488 53.0706,39.5307 53.1201,39.0434 C53.1179,31.2807 53.1212,23.518 53.1179,15.7553 C43.4049,15.7564 33.6919,15.752 23.9789,15.7509 C23.9778,23.2716 23.9778,30.7912 23.9789,38.3119 C27.2811,38.313 30.5844,38.3141 33.8877,38.3141 C34.3167,38.2789 34.7534,38.5407 34.892,38.9532 C35.1164,39.5362 34.6104,40.2182 33.9922,40.1907 C28.7793,40.1962 23.5653,40.1951 18.3513,40.1973 C18.1324,41.7813 17.391,43.2883 16.2547,44.4147 C15.1206,45.5532 13.6037,46.3078 12.0065,46.5036 C10.3345,46.7247 8.5932,46.3188 7.1775,45.4036 C5.6573,44.4279 4.5177,42.8703 4.0623,41.1202 C3.6564,39.6011 3.7565,37.9489 4.3615,36.4958 C5.0743,34.7413 6.5065,33.3003 8.2489,32.5611 C9.3896,32.0683 10.6579,31.8835 11.891,32.0232 C14.003,32.23 15.9896,33.4224 17.1611,35.1912 C17.8068,36.1185 18.139,37.2097 18.3656,38.3042 C19.6086,38.3119 20.8516,38.3152 22.0946,38.3075 C22.0935,35.1362 22.0913,31.9638 22.0902,28.7925 C15.3538,28.7903 8.6163,28.7969 1.8799,28.7958 C1.8777,32.2509 1.881,35.706 1.8755,39.1622 C1.9052,39.6176 1.5477,40.0378 1.1066,40.1214 C0.5951,40.2314 0.1144,39.8332 0,39.3481 L0,22.7348 C0.0528,22.3223 0.3762,22.0473 0.6611,21.7822 C4.6871,17.9245 8.7087,14.0613 12.7336,10.2025 C12.9415,9.9957 13.2231,9.8637 13.5201,9.8758 C16.3724,9.8681 19.2247,9.878 22.077,9.8791 C22.1166,8.1642 22.0858,6.4493 22.0957,4.7344 C22.0913,4.0293 22.1727,3.3088 22.4763,2.6642 C23.1231,1.1242 24.7093,0.0572 26.3747,0 M23.9723,4.3989 C23.9701,7.5537 23.9701,10.7085 23.969,13.8633 C33.6864,13.871 43.4038,13.8721 53.1213669,13.8688 C53.1201,10.7866 53.1234,7.7033 53.119,4.62 C53.1344,4.0546 52.9914,3.4804 52.6647,3.014 C52.1697,2.2671 51.2732,1.848 50.3855,1.8854 C42.4259,1.8755 34.4652,1.8854 26.5045,1.8832 C25.1658,1.848 23.9756,3.0756 23.9723,4.3989 M13.6081,11.9625 C9.6943,15.7212 5.7794,19.4788 1.8722,23.2452 C1.8799,24.4695 1.8799,25.6938 1.881,26.9192 C8.6185,26.9181 15.356,26.9181 22.0935,26.9192 C22.0957,21.8658 22.0946,16.8124 22.0946,11.759 C19.3831,11.7601 16.6716,11.7513 13.9601,11.759 C13.8083,11.7392 13.7115,11.8778 13.6081,11.9625 M9.9561,33.9559 C8.5569,34.2617 7.2952,35.1461 6.5362,36.3616 C5.7244,37.6299 5.4857,39.2458 5.9015,40.6934 C6.2656,42.0244 7.172,43.1926 8.3633,43.8889 C9.5084,44.5764 10.9164,44.8107 12.2232,44.5313 C13.8314,44.2024 15.2559,43.0936 15.9676,41.6141 C16.522,40.4954 16.6672,39.1809 16.3669,37.9687 C16.0545,36.6894 15.2625,35.53 14.1724,34.7864 C12.9668,33.935 11.3949,33.638 9.9561,33.9559 Z" id="Shape"></path>
            <path d="M42.8395,31.9814 C44.7326,31.7141 46.7269,32.208 48.2548,33.363 C50.5527,35.0383 51.6857,38.1458 50.9806,40.9046 C50.5516,42.6778 49.434,44.2739 47.9083,45.276 C46.4541,46.2462 44.6402,46.6697 42.9077,46.4211 C41.1532,46.1934 39.5032,45.2837 38.3537,43.9406 C37.312,42.7394 36.6905,41.1818 36.608,39.5945 C36.5079,37.9137 37.0183,36.1988 38.0391,34.8579 C39.1743,33.3135 40.9464,32.2674 42.8395,31.9814 M43.0661,33.8547 C40.8012,34.1715 38.8542,36.0965 38.5451,38.368 C38.2844,39.9575 38.8014,41.6482 39.8893,42.8329 C40.9178,43.9813 42.4622,44.6446 44.0033,44.6039 C45.5477,44.5808 47.0591,43.8438 48.0414,42.6536 C49.027,41.4843 49.4791,39.8794 49.2316,38.368 C49.0094,36.8995 48.1459,35.5399 46.9062,34.7193 C45.7974,33.957 44.3938,33.6468 43.0661,33.8547 Z" id="Shape"></path>
        </g>
    </g>
</svg>