<?xml version="1.0" encoding="UTF-8"?>
<svg width="100px" height="108px" viewBox="0 0 100 108" version="1.1" xmlns="http://www.w3.org/2000/svg" xmlns:xlink="http://www.w3.org/1999/xlink">
    <title>shopping-cart-2 copy</title>
    <g id="Page-1" stroke="none" stroke-width="1" fill="none" fill-rule="evenodd">
        <g id="shopping-cart-2-copy" fill="#fff" fill-rule="nonzero">
            <path d="M53.4470385,48.4742853 C53.9576337,48.9848805 54.6458272,49.251278 55.3340207,49.251278 C56.0222142,49.251278 56.688208,48.9848805 57.221003,48.4742853 L73.6266484,32.0686399 C74.6700386,31.0252497 74.6700386,29.3380656 73.6266484,28.2946754 C72.5832583,27.2512853 70.8960741,27.2512853 69.852684,28.2946754 L55.3340207,42.8355385 L49.4732759,36.9747937 C48.4298858,35.9314035 46.7427017,35.9314035 45.6993115,36.9747937 C44.6559213,38.0181838 44.6559213,39.7053679 45.6993115,40.7487581 L53.4470385,48.4742853 Z" id="Path"></path>
            <path d="M28.3612748,70.6740762 L88.0565125,70.6740762 C94.6498504,70.6740762 100,65.3017268 100,58.7305887 L100,33.5782257 C100,32.1130395 98.8012113,30.9142508 97.3360251,30.9142508 C95.8708389,30.9142508 94.6720502,32.1130395 94.6720502,33.5782257 L94.6720502,58.7083889 C94.6720502,62.3713544 91.6972782,65.3239266 88.0565125,65.3239266 L28.3612748,65.3239266 C24.6983093,65.3239266 21.7457371,62.3491547 21.7457371,58.7083889 L21.7457371,43.9011284 L21.7457371,27.3400844 L21.7457371,25.1867047 L21.7457371,9.6024515 C21.7457371,9.51365233 21.7457371,9.40265338 21.7235373,9.31385421 C21.7235373,9.29165442 21.7235373,9.26945463 21.7235373,9.24725484 C21.7235373,9.18065547 21.7013375,9.1140561 21.7013375,9.06965651 C21.7013375,9.02525693 21.6791377,8.95865756 21.6569379,8.91425798 C21.6569379,8.89205819 21.6347382,8.84765861 21.6347382,8.82545881 C21.6125384,8.75885944 21.5903386,8.71445986 21.5681388,8.64786049 C21.5681388,8.6256607 21.545939,8.60346091 21.545939,8.58126111 C21.5237392,8.53686153 21.5015394,8.47026216 21.4793396,8.42586258 C21.4571398,8.40366279 21.4571398,8.35926321 21.43494,8.33706341 C21.4127402,8.29266383 21.3905405,8.24826425 21.3683407,8.20386467 C21.3461409,8.15946509 21.3239411,8.1372653 21.3017413,8.09286572 C21.2795415,8.07066592 21.2573417,8.02626634 21.2351419,8.00406655 C21.2129421,7.95966697 21.1685425,7.91526739 21.1463428,7.8930676 C21.124143,7.87086781 21.1019432,7.84866802 21.0797434,7.82646822 C21.0353438,7.78206864 21.013144,7.73766906 20.9687444,7.69326948 C20.9465446,7.67106969 20.9243448,7.6488699 20.9021451,7.6488699 C20.8577455,7.60447032 20.8133459,7.56007073 20.7689463,7.53787094 C20.7467465,7.51567115 20.7245467,7.49347136 20.7023469,7.47127157 C20.6579474,7.44907178 20.6135478,7.4046722 20.5691482,7.38247241 C20.5247486,7.33807282 20.4581492,7.31587303 20.4137497,7.27147345 C20.3915499,7.27147345 20.3693501,7.24927366 20.3693501,7.22707387 C20.2805509,7.18267429 20.1917518,7.13827471 20.1029526,7.09387513 L3.69730712,0.211939949 C2.34311987,-0.365254614 0.789134512,0.278539322 0.211939949,1.63272657 C-0.365254614,2.96471402 0.278539322,4.54089917 1.63272657,5.11809374 L16.3955875,11.356235 L16.3955875,25.1867047 L16.3955875,27.3400844 L16.3955875,43.9011284 L16.3955875,58.7083889 L16.3955875,77.4228127 C16.3955875,83.6831537 21.2129421,88.8113054 27.3400844,89.3219006 C26.0968961,91.186683 25.364303,93.4288619 25.364303,95.8486391 C25.364303,102.353178 30.6700531,107.658928 37.1745918,107.658928 C43.6791305,107.658928 48.9848805,102.353178 48.9848805,95.8486391 C48.9848805,93.4510617 48.2744872,91.2310826 47.0534987,89.3663002 L75.3138325,89.3663002 C74.092844,91.2310826 73.3824507,93.4510617 73.3824507,95.8486391 C73.3824507,102.353178 78.6882007,107.658928 85.1927395,107.658928 C91.6972782,107.658928 97.0030282,102.353178 97.0030282,95.8486391 C97.0030282,89.3441004 91.6972782,84.0383504 85.1927395,84.0383504 L28.3612748,84.0383504 C24.6983093,84.0383504 21.7457371,81.0635784 21.7457371,77.4228127 L21.7457371,68.6538953 C23.6327193,69.9192833 25.9192978,70.6740762 28.3612748,70.6740762 Z M43.6569307,95.8486391 C43.6569307,99.4228054 40.7487581,102.330978 37.1745918,102.330978 C33.6004254,102.330978 30.6922528,99.4228054 30.6922528,95.8486391 C30.6922528,92.2744728 33.6004254,89.3663002 37.1745918,89.3663002 C40.7487581,89.3663002 43.6569307,92.2744728 43.6569307,95.8486391 Z M91.6528786,95.8486391 C91.6528786,99.4228054 88.744706,102.330978 85.1705397,102.330978 C81.5963734,102.330978 78.6882007,99.4228054 78.6882007,95.8486391 C78.6882007,92.2744728 81.5963734,89.3663002 85.1705397,89.3663002 C88.744706,89.3663002 91.6528786,92.2744728 91.6528786,95.8486391 Z" id="Shape"></path>
        </g>
    </g>
</svg>