<?xml version="1.0" encoding="UTF-8"?>
<svg width="110px" height="83px" viewBox="0 0 110 83" version="1.1" xmlns="http://www.w3.org/2000/svg" xmlns:xlink="http://www.w3.org/1999/xlink">
    <title>Group 15</title>
    <g id="Page-1" stroke="none" stroke-width="1" fill="none" fill-rule="evenodd">
        <g id="Group-15" fill="#fff" fill-rule="nonzero">
            <path d="M94.8674699,55.5180723 L88.2409639,55.5180723 C85.8313253,55.5180723 83.8795181,53.5662651 83.8795181,51.1566265 C83.8795181,48.746988 85.8313253,46.7951807 88.2409639,46.7951807 L99.9036145,46.7951807 C101.493976,46.7951807 102.795181,45.4939759 102.795181,43.9036145 C102.795181,42.313253 101.493976,41.0120482 99.9036145,41.0120482 L94.4578313,41.0120482 L94.4578313,36.9879518 C94.4578313,35.3975904 93.1566265,34.0963855 91.5662651,34.0963855 C89.9759036,34.0963855 88.6746988,35.3975904 88.6746988,36.9879518 L88.6746988,41.0120482 L88.2650602,41.0120482 C82.6746988,41.0120482 78.1204819,45.5662651 78.1204819,51.1566265 C78.1204819,56.746988 82.6746988,61.3012048 88.2650602,61.3012048 L94.8915663,61.3012048 C97.3012048,61.3012048 99.253012,63.253012 99.253012,65.6626506 C99.253012,68.0722892 97.3012048,70.0240964 94.8915663,70.0240964 L83.0120482,70.0240964 C81.4216867,70.0240964 80.1204819,71.3253012 80.1204819,72.9156627 C80.1204819,74.5060241 81.4216867,75.8072289 83.0120482,75.8072289 L88.6746988,75.8072289 L88.6746988,79.9277108 C88.6746988,81.5180723 89.9759036,82.8192771 91.5662651,82.8192771 C93.1566265,82.8192771 94.4578313,81.5180723 94.4578313,79.9277108 L94.4578313,75.8072289 L94.939759,75.8072289 C94.9638554,75.8072289 94.9879518,75.8072289 95.0120482,75.8072289 C100.554217,75.7349398 105.012048,71.2048193 105.012048,65.6626506 C105.012048,60.0722892 100.457831,55.5180723 94.8674699,55.5180723 Z" id="Path"></path>
            <path d="M63.9036145,69.4698795 L8.09638554,69.4698795 C6.81927711,69.4698795 5.78313253,68.4337349 5.78313253,67.1566265 L5.78313253,23.1566265 L104.216867,23.1566265 L104.216867,28.939759 C104.216867,30.5301205 105.518072,31.8313253 107.108434,31.8313253 C108.698795,31.8313253 110,30.5301205 110,28.939759 L110,8.09638554 C110,3.63855422 106.361446,0 101.903614,0 L8.09638554,0 C3.61445783,0 0,3.63855422 0,8.09638554 L0,67.1566265 C0,71.6144578 3.63855422,75.253012 8.09638554,75.253012 L63.9277108,75.253012 C65.5180723,75.253012 66.8192771,73.9518072 66.8192771,72.3614458 C66.8192771,70.7710843 65.5180723,69.4698795 63.9036145,69.4698795 Z M8.09638554,5.78313253 L101.903614,5.78313253 C103.180723,5.78313253 104.216867,6.81927711 104.216867,8.09638554 L104.216867,17.373494 L5.75903614,17.373494 L5.75903614,8.09638554 C5.75903614,6.81927711 6.81927711,5.78313253 8.09638554,5.78313253 Z" id="Shape"></path>
            <path d="M20.2409639,52.0963855 C18.6506024,52.0963855 17.3493976,53.3975904 17.3493976,54.9879518 C17.3493976,56.5783133 18.6506024,57.8795181 20.2409639,57.8795181 L34.1445783,57.8795181 C35.7349398,57.8795181 37.0361446,56.5783133 37.0361446,54.9879518 C37.0361446,53.3975904 35.7349398,52.0963855 34.1445783,52.0963855 L20.2409639,52.0963855 Z" id="Path"></path>
            <path d="M19.9036145,37.0361446 L54.6506024,37.0361446 C56.2409639,37.0361446 57.5421687,35.7349398 57.5421687,34.1445783 C57.5421687,32.5542169 56.2409639,31.253012 54.6506024,31.253012 L19.9036145,31.253012 C18.313253,31.253012 17.0120482,32.5542169 17.0120482,34.1445783 C17.0120482,35.7349398 18.2891566,37.0361446 19.9036145,37.0361446 Z" id="Path"></path>
        </g>
    </g>
</svg>