<?xml version="1.0" encoding="UTF-8"?>
<svg width="95px" height="117px" viewBox="0 0 95 117" version="1.1" xmlns="http://www.w3.org/2000/svg" xmlns:xlink="http://www.w3.org/1999/xlink">
    <title>like-1 copy</title>
    <g id="Page-1" stroke="none" stroke-width="1" fill="none" fill-rule="evenodd">
        <g id="like-1-copy" fill="#fff" fill-rule="nonzero">
            <path d="M28.9088608,47.5 C28.9088608,45.9126582 27.6101266,44.6139241 26.0227848,44.6139241 L2.88607595,44.6139241 C1.29873418,44.6139241 3.4178005e-15,45.9126582 3.4178005e-15,47.5 C3.4178005e-15,49.0873418 1.29873418,50.3860759 2.88607595,50.3860759 L26.0227848,50.3860759 C27.6101266,50.3860759 28.9088608,49.0873418 28.9088608,47.5 Z" id="Path"></path>
            <path d="M92.1139241,44.6139241 L68.9772152,44.6139241 C67.3898734,44.6139241 66.0911392,45.9126582 66.0911392,47.5 C66.0911392,49.0873418 67.3898734,50.3860759 68.9772152,50.3860759 L92.1139241,50.3860759 C93.7012658,50.3860759 95,49.0873418 95,47.5 C95,45.9126582 93.7253165,44.6139241 92.1139241,44.6139241 Z" id="Path"></path>
            <path d="M47.5,28.9088608 C49.0873418,28.9088608 50.3860759,27.6101266 50.3860759,26.0227848 L50.3860759,2.88607595 C50.3860759,1.29873418 49.0873418,0 47.5,0 C45.9126582,0 44.6139241,1.29873418 44.6139241,2.88607595 L44.6139241,26.0227848 C44.6139241,27.6101266 45.9126582,28.9088608 47.5,28.9088608 Z" id="Path"></path>
            <path d="M62.6759494,35.2101266 C63.421519,35.2101266 64.143038,34.921519 64.7202532,34.3683544 L81.0987342,17.9898734 C82.2291139,16.8594937 82.2291139,15.0316456 81.0987342,13.9012658 C79.9683544,12.7708861 78.1405063,12.7708861 77.0101266,13.9012658 L60.6316456,30.2797468 C59.5012658,31.4101266 59.5012658,33.2379747 60.6316456,34.3683544 C61.2088608,34.921519 61.9544304,35.2101266 62.6759494,35.2101266 Z" id="Path"></path>
            <path d="M30.2797468,34.3683544 C30.8329114,34.921519 31.578481,35.2101266 32.3240506,35.2101266 C33.0696203,35.2101266 33.7911392,34.921519 34.3683544,34.3683544 C35.4987342,33.2379747 35.4987342,31.4101266 34.3683544,30.2797468 L17.9898734,13.9012658 C16.8594937,12.7708861 15.0316456,12.7708861 13.9012658,13.9012658 C12.7708861,15.0316456 12.7708861,16.8594937 13.9012658,17.9898734 L30.2797468,34.3683544 Z" id="Path"></path>
            <path d="M82.1810127,65.7063291 C79.9924051,63.8303797 77.2265823,62.7962025 74.4126582,62.7962025 L71.7911392,62.7962025 L62.3632911,62.7962025 L57.8898734,62.7962025 L57.8898734,51.1316456 C57.8898734,45.5518987 56.2303797,41.4873418 52.935443,39.0582278 C47.7405063,35.2582278 40.6936709,37.3987342 40.3810127,37.4949367 C39.178481,37.8797468 38.3607595,38.9860759 38.3607595,40.2367089 L38.3607595,54.3063291 C38.3607595,58.5873418 36.3164557,62.2189873 32.2518987,65.1291139 C29.1734177,67.3417722 26.0227848,68.3518987 25.6139241,68.4721519 L25.3253165,68.5443038 C24.243038,67.3177215 22.6556962,66.5481013 20.8759494,66.5481013 L9.90886076,66.5481013 C6.63797468,66.5481013 3.96835443,69.2177215 3.96835443,72.4886076 L3.96835443,108.468354 C3.96835443,111.739241 6.63797468,114.408861 9.90886076,114.408861 L20.9240506,114.408861 C22.3670886,114.408861 23.7139241,113.879747 24.7240506,113.013924 C26.9367089,115.178481 29.943038,116.501266 33.1898734,116.501266 L44.1329114,116.501266 L45.2632911,116.501266 L67.6544304,116.501266 C71.1177215,116.501266 74.1721519,115.659494 76.5050633,114.096203 C79.4873418,112.075949 81.3392405,108.877215 81.8683544,104.788608 L86.3177215,77.1303797 C87.0151899,72.8493671 85.4278481,68.4721519 82.1810127,65.7063291 Z M21.0924051,108.468354 C21.0924051,108.564557 21.0202532,108.636709 20.9240506,108.636709 L9.90886076,108.636709 C9.81265823,108.636709 9.74050633,108.564557 9.74050633,108.468354 L9.74050633,72.4886076 C9.74050633,72.3924051 9.81265823,72.3202532 9.90886076,72.3202532 L20.9240506,72.3202532 C21.0202532,72.3202532 21.0924051,72.3924051 21.0924051,72.4886076 L21.0924051,108.468354 L21.0924051,108.468354 Z M80.6177215,76.2405063 L76.1683544,103.946835 C76.1683544,103.970886 76.1683544,104.018987 76.1443038,104.067089 C75.9518987,105.726582 75.3265823,110.753165 67.6544304,110.753165 L45.2632911,110.753165 L44.1329114,110.753165 L33.1898734,110.753165 C30.1113924,110.753165 27.4177215,108.444304 26.9367089,105.389873 C26.9126582,105.26962 26.8886076,105.149367 26.864557,105.053165 L26.864557,74.1240506 L27.0329114,74.0759494 C27.0810127,74.0759494 27.1050633,74.0518987 27.1531646,74.0518987 C27.321519,74.0037975 31.4101266,72.8493671 35.4746835,69.9392405 C41.1265823,65.9227848 44.1329114,60.5113924 44.1329114,54.3063291 L44.1329114,42.6177215 C45.7202532,42.4493671 47.9088608,42.521519 49.5202532,43.7 C51.2518987,44.9746835 52.1177215,47.4759494 52.1177215,51.1075949 L52.1177215,65.6582278 C52.1177215,67.2455696 53.4164557,68.5443038 55.0037975,68.5443038 L62.3632911,68.5443038 L71.7911392,68.5443038 L74.4126582,68.5443038 C75.8556962,68.5443038 77.2746835,69.0974684 78.4291139,70.0594937 C80.1607595,71.5506329 80.978481,73.9075949 80.6177215,76.2405063 Z" id="Shape"></path>
        </g>
    </g>
</svg>