<?xml version="1.0" encoding="UTF-8"?>
<svg width="100px" height="104px" viewBox="0 0 100 104" version="1.1" xmlns="http://www.w3.org/2000/svg" xmlns:xlink="http://www.w3.org/1999/xlink">
    <title>invoice copy</title>
    <g id="Page-1" stroke="none" stroke-width="1" fill="none" fill-rule="evenodd">
        <g id="invoice-copy" fill="#fff" fill-rule="nonzero">
            <path d="M97.3568282,0 L2.64317181,0 C1.18942731,0 0,1.18942731 0,2.64317181 C0,4.0969163 1.18942731,5.28634361 2.64317181,5.28634361 L8.34801762,5.28634361 L8.34801762,100.528634 C8.34801762,101.497797 8.87665198,102.400881 9.73568282,102.863436 C10.5947137,103.325991 11.6299559,103.281938 12.4449339,102.731278 L23.9207048,95.0881057 L35.4405286,102.753304 C36.3215859,103.348018 37.4889868,103.348018 38.3700441,102.753304 L49.845815,95.1101322 L61.3656388,102.77533 C62.246696,103.370044 63.4140969,103.370044 64.2951542,102.77533 L75.7709251,95.1321586 L87.2907489,102.797357 C87.7312775,103.0837 88.2378855,103.237885 88.7444934,103.237885 C89.1629956,103.237885 89.6035242,103.127753 90,102.929515 C90.8590308,102.46696 91.3876652,101.563877 91.3876652,100.594714 L91.3436123,5.35242291 L97.3568282,5.35242291 C98.8105727,5.35242291 100,4.16299559 100,2.7092511 C100,1.25550661 98.8105727,0 97.3568282,0 Z M86.123348,95.5947137 L77.246696,89.69163 C76.3656388,89.0969163 75.1982379,89.0969163 74.3171806,89.69163 L62.8414097,97.3568282 L51.3215859,89.69163 C50.4405286,89.0969163 49.2731278,89.0969163 48.3920705,89.69163 L36.9162996,97.3348018 L25.3964758,89.69163 C24.5154185,89.0969163 23.3480176,89.0969163 22.4669604,89.69163 L13.6343612,95.5726872 L13.6343612,5.26431718 L86.1013216,5.26431718 L86.123348,95.5947137 Z" id="Shape"></path>
            <path d="M25.7929515,42.2026432 L53.4801762,42.2026432 C54.9339207,42.2026432 56.123348,41.0132159 56.123348,39.5594714 C56.123348,38.1057269 54.9339207,36.9162996 53.4801762,36.9162996 L25.7929515,36.9162996 C24.339207,36.9162996 23.1497797,38.1057269 23.1497797,39.5594714 C23.1497797,41.0132159 24.3171806,42.2026432 25.7929515,42.2026432 Z" id="Path"></path>
            <path d="M67.3127753,42.2026432 L74.2290749,42.2026432 C75.6828194,42.2026432 76.8722467,41.0132159 76.8722467,39.5594714 C76.8722467,38.1057269 75.6828194,36.9162996 74.2290749,36.9162996 L67.3127753,36.9162996 C65.8590308,36.9162996 64.6696035,38.1057269 64.6696035,39.5594714 C64.6696035,41.0132159 65.8370044,42.2026432 67.3127753,42.2026432 Z" id="Path"></path>
            <path d="M25.7929515,20.9911894 L53.4801762,20.9911894 C54.9339207,20.9911894 56.123348,19.8017621 56.123348,18.3480176 C56.123348,16.8942731 54.9339207,15.7048458 53.4801762,15.7048458 L25.7929515,15.7048458 C24.339207,15.7048458 23.1497797,16.8942731 23.1497797,18.3480176 C23.1497797,19.8017621 24.3171806,20.9911894 25.7929515,20.9911894 Z" id="Path"></path>
            <path d="M67.3127753,20.9911894 L74.2290749,20.9911894 C75.6828194,20.9911894 76.8722467,19.8017621 76.8722467,18.3480176 C76.8722467,16.8942731 75.6828194,15.7048458 74.2290749,15.7048458 L67.3127753,15.7048458 C65.8590308,15.7048458 64.6696035,16.8942731 64.6696035,18.3480176 C64.6696035,19.8017621 65.8370044,20.9911894 67.3127753,20.9911894 Z" id="Path"></path>
            <path d="M25.7929515,63.6784141 L53.4801762,63.6784141 C54.9339207,63.6784141 56.123348,62.4889868 56.123348,61.0352423 C56.123348,59.5814978 54.9339207,58.3920705 53.4801762,58.3920705 L25.7929515,58.3920705 C24.339207,58.3920705 23.1497797,59.5814978 23.1497797,61.0352423 C23.1497797,62.4889868 24.3171806,63.6784141 25.7929515,63.6784141 Z" id="Path"></path>
            <path d="M67.3127753,63.6784141 L74.2290749,63.6784141 C75.6828194,63.6784141 76.8722467,62.4889868 76.8722467,61.0352423 C76.8722467,59.5814978 75.6828194,58.3920705 74.2290749,58.3920705 L67.3127753,58.3920705 C65.8590308,58.3920705 64.6696035,59.5814978 64.6696035,61.0352423 C64.6696035,62.4889868 65.8370044,63.6784141 67.3127753,63.6784141 Z" id="Path"></path>
        </g>
    </g>
</svg>